<svg width="21" height="18" viewBox="0 0 21 18" fill="none" xmlns="http://www.w3.org/2000/svg">
<path d="M1.08322 3.40947C0.75 4.64946 0.75 6.36008 0.75 9C0.75 12.7497 0.75 14.6246 1.70491 15.9389C2.01331 16.3634 2.3866 16.7367 2.81107 17.0451C4.1254 18 6.00027 18 9.75 18H11.75C15.4997 18 17.3746 18 18.6889 17.0451C19.1134 16.7367 19.4867 16.3634 19.7951 15.9389C20.75 14.6246 20.75 12.7497 20.75 9C20.75 6.35129 20.75 4.63806 20.4134 3.39709L18.3107 5.49986C16.6784 7.13214 15.3992 8.41132 14.267 9.2752C13.1081 10.1594 12.0153 10.6789 10.7499 10.6789C9.48441 10.6789 8.39167 10.1594 7.23274 9.2752C6.10048 8.41132 4.82131 7.13213 3.18904 5.49984L1.23385 3.54466L1.08322 3.40947Z" fill="#B1BDC8"/>
<path d="M1.75 2L1.85885 2.09007L2.26587 2.45535L4.20913 4.39861C5.89079 6.08027 7.09981 7.28703 8.14261 8.08267C9.16812 8.8651 9.94425 9.17894 10.7499 9.17894C11.5555 9.17894 12.3316 8.8651 13.3571 8.08267C14.3999 7.28703 15.6089 6.08027 17.2906 4.39861L19.5985 2.0907L19.7241 1.96579C19.4157 1.54132 19.1134 1.26331 18.6889 0.954915C17.3746 0 15.4997 0 11.75 0H9.75C6.00027 0 4.1254 0 2.81107 0.954915C2.3866 1.26331 2.0584 1.57553 1.75 2Z" fill="#B1BDC8"/>
</svg>
