<svg width="97" height="30" viewBox="0 0 97 30" fill="none" xmlns="http://www.w3.org/2000/svg">
<g clip-path="url(#clip0_43_3)">
<path d="M2.415 18.8V21.026C2.415 21.096 2.45 21.131 2.52 21.131H3.36C3.43 21.131 3.465 21.096 3.465 21.026V17.246L1.806 16.511C1.68 16.469 1.505 16.399 1.281 16.301C1.057 16.189 0.854 16.028 0.672 15.818C0.504 15.608 0.42 15.321 0.42 14.957V10.169C0.42 9.581 0.602 9.112 0.966 8.762C1.33 8.398 1.806 8.216 2.394 8.216H3.486C4.074 8.216 4.55 8.398 4.914 8.762C5.278 9.112 5.46 9.581 5.46 10.169V13.277L3.465 13.109V10.274C3.465 10.204 3.43 10.169 3.36 10.169H2.52C2.45 10.169 2.415 10.204 2.415 10.274V14.663L4.074 15.398C4.2 15.454 4.375 15.531 4.599 15.629C4.823 15.727 5.019 15.881 5.187 16.091C5.369 16.301 5.46 16.588 5.46 16.952V21.131C5.46 21.719 5.278 22.195 4.914 22.559C4.55 22.909 4.074 23.084 3.486 23.084H2.394C1.806 23.084 1.33 22.909 0.966 22.559C0.602 22.195 0.42 21.719 0.42 21.131V18.8H2.415ZM10.1697 21.047V23H8.95174C8.36374 23 7.88774 22.825 7.52374 22.475C7.15974 22.111 6.97774 21.635 6.97774 21.047V14.453H6.09574L6.26374 12.5H6.97774V10.253H6.45274L6.62074 8.3H8.97274V12.5H10.1697L10.0017 14.453H8.97274V21.047H10.1697ZM10.6944 21.131V14.369C10.6944 13.781 10.8764 13.312 11.2404 12.962C11.6044 12.598 12.0804 12.416 12.6684 12.416H13.9704C14.5584 12.416 15.0344 12.598 15.3984 12.962C15.7624 13.312 15.9444 13.781 15.9444 14.369V16.952H13.9494V14.474C13.9494 14.404 13.9144 14.369 13.8444 14.369H12.7944C12.7244 14.369 12.6894 14.404 12.6894 14.474V16.952H15.9444V18.905H12.6894V21.026C12.6894 21.096 12.7244 21.131 12.7944 21.131H13.8444C13.9144 21.131 13.9494 21.103 13.9494 21.047V19.892H15.9444V21.131C15.9444 21.719 15.7624 22.195 15.3984 22.559C15.0344 22.909 14.5584 23.084 13.9704 23.084H12.6684C12.0804 23.084 11.6044 22.909 11.2404 22.559C10.8764 22.195 10.6944 21.719 10.6944 21.131ZM19.0742 25.793H17.0792V14.453H16.5752L16.7852 12.5H19.0742V13.319L19.5992 12.5H20.1662C20.8102 12.5 21.3212 12.682 21.6992 13.046C22.0912 13.41 22.2872 13.879 22.2872 14.453V21.047C22.2872 21.607 22.0912 22.076 21.6992 22.454C21.3212 22.818 20.8102 23 20.1662 23H20.0822C19.7042 23 19.3682 22.909 19.0742 22.727V25.793ZM20.1872 14.453H19.0742V21.047H20.1872C20.2572 21.047 20.2922 21.012 20.2922 20.942V14.558C20.2922 14.488 20.2572 14.453 20.1872 14.453Z" fill="url(#paint0_linear_43_3)"/>
<path d="M32.92 14.243C33.368 14.243 33.718 14.369 33.97 14.621C34.236 14.873 34.369 15.223 34.369 15.671C34.369 15.783 34.362 15.902 34.348 16.028C34.334 16.14 34.306 16.238 34.264 16.322C34.082 16.294 33.879 16.273 33.655 16.259C33.431 16.231 33.165 16.217 32.857 16.217C32.227 16.217 31.597 16.273 30.967 16.385C30.337 16.497 29.735 16.588 29.161 16.658C28.531 18.142 28.013 19.535 27.607 20.837C27.201 22.139 26.886 23.427 26.662 24.701C26.186 24.589 25.766 24.386 25.402 24.092C25.038 23.798 24.695 23.385 24.373 22.853C24.471 22.629 24.59 22.363 24.73 22.055C24.87 21.733 25.038 21.334 25.234 20.858C25.43 20.368 25.661 19.78 25.927 19.094C26.207 18.394 26.536 17.561 26.914 16.595C26.326 16.399 25.941 16.056 25.759 15.566C25.829 15.496 26.025 15.419 26.347 15.335C26.669 15.237 27.061 15.132 27.523 15.02C27.733 14.474 27.915 13.991 28.069 13.571C28.223 13.137 28.363 12.731 28.489 12.353C28.615 11.961 28.727 11.583 28.825 11.219C28.937 10.841 29.035 10.442 29.119 10.022H29.014C28.482 10.022 28.048 9.896 27.712 9.644C27.39 9.392 27.229 9.063 27.229 8.657C27.229 8.545 27.243 8.412 27.271 8.258C27.313 8.104 27.362 7.971 27.418 7.859C27.684 7.901 27.943 7.929 28.195 7.943C28.461 7.957 28.804 7.964 29.224 7.964C30.106 7.964 30.932 7.943 31.702 7.901C32.472 7.845 33.165 7.789 33.781 7.733C34.411 7.677 34.95 7.628 35.398 7.586C35.846 7.53 36.189 7.502 36.427 7.502C36.749 7.502 37.036 7.67 37.288 8.006C37.54 8.342 37.736 8.818 37.876 9.434C37.428 9.392 37.064 9.364 36.784 9.35C36.518 9.336 36.28 9.329 36.07 9.329C35.356 9.329 34.698 9.364 34.096 9.434C33.508 9.49 32.948 9.56 32.416 9.644C32.332 9.77 32.234 9.931 32.122 10.127C32.024 10.323 31.891 10.603 31.723 10.967C31.555 11.317 31.338 11.779 31.072 12.353C30.82 12.927 30.498 13.655 30.106 14.537C30.652 14.453 31.17 14.383 31.66 14.327C32.164 14.271 32.584 14.243 32.92 14.243ZM37.7943 23.735C36.9963 23.651 36.3593 23.301 35.8833 22.685C35.4073 22.069 35.1693 21.285 35.1693 20.333C35.1693 19.773 35.2533 19.192 35.4213 18.59C35.5893 17.988 35.8273 17.407 36.1353 16.847C36.4433 16.273 36.8073 15.734 37.2273 15.23C37.6473 14.726 38.1023 14.292 38.5923 13.928C39.3623 13.354 40.0833 13.067 40.7553 13.067C41.2033 13.305 41.6443 13.802 42.0783 14.558C42.1483 14.558 42.2113 14.558 42.2673 14.558C42.3233 14.544 42.3863 14.537 42.4563 14.537C43.1983 14.537 43.5693 15.195 43.5693 16.511C43.5693 17.393 43.4223 18.233 43.1283 19.031C42.8483 19.815 42.4493 20.529 41.9313 21.173C41.4273 21.817 40.8183 22.363 40.1043 22.811C39.4043 23.245 38.6343 23.553 37.7943 23.735ZM38.8653 17.12C38.6273 17.442 38.4033 17.792 38.1933 18.17C37.9833 18.548 37.8013 18.933 37.6473 19.325C37.4933 19.703 37.3743 20.074 37.2903 20.438C37.2063 20.788 37.1643 21.103 37.1643 21.383C37.1643 21.719 37.2203 22.041 37.3323 22.349C37.4443 22.657 37.5703 22.832 37.7103 22.874C38.3403 22.734 38.9143 22.475 39.4323 22.097C39.9643 21.705 40.4193 21.222 40.7973 20.648C41.1893 20.074 41.4903 19.423 41.7003 18.695C41.9243 17.967 42.0363 17.19 42.0363 16.364C42.0363 16 42.0153 15.713 41.9733 15.503C41.9313 15.293 41.8613 15.111 41.7633 14.957C41.1473 15.139 40.5943 15.433 40.1043 15.839C39.6283 16.245 39.2153 16.672 38.8653 17.12ZM44.0818 22.58C44.1518 22.174 44.2708 21.642 44.4388 20.984C44.6208 20.312 44.8308 19.605 45.0688 18.863C45.3068 18.107 45.5588 17.351 45.8248 16.595C46.0908 15.839 46.3498 15.16 46.6018 14.558C46.7838 14.124 46.9448 13.788 47.0848 13.55C47.2248 13.298 47.3788 13.088 47.5468 12.92C47.7428 12.948 47.9458 12.997 48.1558 13.067C48.3658 13.137 48.5688 13.221 48.7648 13.319C48.9608 13.417 49.1358 13.522 49.2898 13.634C49.4438 13.732 49.5628 13.83 49.6468 13.928C49.2688 14.376 48.9328 14.887 48.6388 15.461C48.3588 16.035 48.0718 16.77 47.7778 17.666C48.5338 16.994 49.1988 16.35 49.7728 15.734C50.3608 15.118 50.9068 14.432 51.4108 13.676C51.4948 13.606 51.6418 13.571 51.8518 13.571C52.0478 13.571 52.2368 13.606 52.4188 13.676C52.6008 13.732 52.7268 13.816 52.7968 13.928C52.5448 14.6 52.4188 15.265 52.4188 15.923C52.4188 16.539 52.5098 17.001 52.6918 17.309C52.6778 17.393 52.5798 17.554 52.3978 17.792C52.2298 18.03 52.0408 18.254 51.8308 18.464C51.4528 18.268 51.1168 18.002 50.8228 17.666C50.5288 17.316 50.3118 16.938 50.1718 16.532C49.5138 16.994 48.9538 17.449 48.4918 17.897C48.0298 18.331 47.6308 18.821 47.2948 19.367C46.9728 19.899 46.6928 20.515 46.4548 21.215C46.2308 21.915 46.0138 22.748 45.8038 23.714C45.6778 23.7 45.5238 23.651 45.3418 23.567C45.1738 23.497 44.9988 23.406 44.8168 23.294C44.6488 23.182 44.4948 23.063 44.3548 22.937C44.2148 22.811 44.1238 22.692 44.0818 22.58Z" fill="url(#paint1_linear_43_3)"/>
<path d="M54.415 18.8V21.026C54.415 21.096 54.45 21.131 54.52 21.131H55.36C55.43 21.131 55.465 21.096 55.465 21.026V17.246L53.806 16.511C53.68 16.469 53.505 16.399 53.281 16.301C53.057 16.189 52.854 16.028 52.672 15.818C52.504 15.608 52.42 15.321 52.42 14.957V10.169C52.42 9.581 52.602 9.112 52.966 8.762C53.33 8.398 53.806 8.216 54.394 8.216H55.486C56.074 8.216 56.55 8.398 56.914 8.762C57.278 9.112 57.46 9.581 57.46 10.169V13.277L55.465 13.109V10.274C55.465 10.204 55.43 10.169 55.36 10.169H54.52C54.45 10.169 54.415 10.204 54.415 10.274V14.663L56.074 15.398C56.2 15.454 56.375 15.531 56.599 15.629C56.823 15.727 57.019 15.881 57.187 16.091C57.369 16.301 57.46 16.588 57.46 16.952V21.131C57.46 21.719 57.278 22.195 56.914 22.559C56.55 22.909 56.074 23.084 55.486 23.084H54.394C53.806 23.084 53.33 22.909 52.966 22.559C52.602 22.195 52.42 21.719 52.42 21.131V18.8H54.415ZM61.8127 21.047V12.5H63.8077V21.047H64.1227L64.3327 23H61.8127V22.181L61.2877 23H60.7207C60.0767 23 59.5587 22.818 59.1667 22.454C58.7887 22.076 58.5997 21.607 58.5997 21.047V14.453H58.0957L58.3057 12.5H60.5947V20.942C60.5947 21.012 60.6297 21.047 60.6997 21.047H61.8127ZM64.7452 21.131V14.369C64.7452 13.781 64.9272 13.312 65.2912 12.962C65.6552 12.598 66.1312 12.416 66.7192 12.416H68.2312C68.8192 12.416 69.2952 12.598 69.6592 12.962C70.0232 13.312 70.2052 13.781 70.2052 14.369V17.141L68.2102 16.931V14.474C68.2102 14.404 68.1752 14.369 68.1052 14.369H66.8452C66.7752 14.369 66.7402 14.404 66.7402 14.474V21.026C66.7402 21.096 66.7752 21.131 66.8452 21.131H68.1052C68.1752 21.131 68.2102 21.103 68.2102 21.047V18.611H70.2052V21.131C70.2052 21.719 70.0232 22.195 69.6592 22.559C69.2952 22.909 68.8192 23.084 68.2312 23.084H66.7192C66.1312 23.084 65.6552 22.909 65.2912 22.559C64.9272 22.195 64.7452 21.719 64.7452 21.131ZM71.0411 21.131V14.369C71.0411 13.781 71.2231 13.312 71.5871 12.962C71.9511 12.598 72.4271 12.416 73.0151 12.416H74.5271C75.1151 12.416 75.5911 12.598 75.9551 12.962C76.3191 13.312 76.5011 13.781 76.5011 14.369V17.141L74.5061 16.931V14.474C74.5061 14.404 74.4711 14.369 74.4011 14.369H73.1411C73.0711 14.369 73.0361 14.404 73.0361 14.474V21.026C73.0361 21.096 73.0711 21.131 73.1411 21.131H74.4011C74.4711 21.131 74.5061 21.103 74.5061 21.047V18.611H76.5011V21.131C76.5011 21.719 76.3191 22.195 75.9551 22.559C75.5911 22.909 75.1151 23.084 74.5271 23.084H73.0151C72.4271 23.084 71.9511 22.909 71.5871 22.559C71.2231 22.195 71.0411 21.719 71.0411 21.131ZM77.337 21.131V14.369C77.337 13.781 77.519 13.312 77.883 12.962C78.247 12.598 78.723 12.416 79.311 12.416H80.613C81.201 12.416 81.677 12.598 82.041 12.962C82.405 13.312 82.587 13.781 82.587 14.369V16.952H80.592V14.474C80.592 14.404 80.557 14.369 80.487 14.369H79.437C79.367 14.369 79.332 14.404 79.332 14.474V16.952H82.587V18.905H79.332V21.026C79.332 21.096 79.367 21.131 79.437 21.131H80.487C80.557 21.131 80.592 21.103 80.592 21.047V19.892H82.587V21.131C82.587 21.719 82.405 22.195 82.041 22.559C81.677 22.909 81.201 23.084 80.613 23.084H79.311C78.723 23.084 78.247 22.909 77.883 22.559C77.519 22.195 77.337 21.719 77.337 21.131ZM83.4278 19.703L85.4228 19.913V20.942C85.4228 21.012 85.4578 21.047 85.5278 21.047H86.3678C86.4378 21.047 86.4728 21.012 86.4728 20.942V18.989L84.6038 18.191C84.3798 18.093 84.1278 17.939 83.8478 17.729C83.5678 17.519 83.4278 17.176 83.4278 16.7V14.369C83.4278 13.781 83.6098 13.312 83.9738 12.962C84.3378 12.598 84.8138 12.416 85.4018 12.416H86.4938C87.0818 12.416 87.5578 12.598 87.9218 12.962C88.2858 13.312 88.4678 13.781 88.4678 14.369V15.713L86.4728 15.503V14.474C86.4728 14.404 86.4378 14.369 86.3678 14.369H85.5278C85.4578 14.369 85.4228 14.404 85.4228 14.474V16.427L87.2918 17.225C87.5158 17.323 87.7678 17.477 88.0478 17.687C88.3278 17.897 88.4678 18.24 88.4678 18.716V21.047C88.4678 21.635 88.2858 22.111 87.9218 22.475C87.5578 22.825 87.0818 23 86.4938 23H85.4018C84.8138 23 84.3378 22.825 83.9738 22.475C83.6098 22.111 83.4278 21.635 83.4278 21.047V19.703ZM89.3136 19.703L91.3086 19.913V20.942C91.3086 21.012 91.3436 21.047 91.4136 21.047H92.2536C92.3236 21.047 92.3586 21.012 92.3586 20.942V18.989L90.4896 18.191C90.2656 18.093 90.0136 17.939 89.7336 17.729C89.4536 17.519 89.3136 17.176 89.3136 16.7V14.369C89.3136 13.781 89.4956 13.312 89.8596 12.962C90.2236 12.598 90.6996 12.416 91.2876 12.416H92.3796C92.9676 12.416 93.4436 12.598 93.8076 12.962C94.1716 13.312 94.3536 13.781 94.3536 14.369V15.713L92.3586 15.503V14.474C92.3586 14.404 92.3236 14.369 92.2536 14.369H91.4136C91.3436 14.369 91.3086 14.404 91.3086 14.474V16.427L93.1776 17.225C93.4016 17.323 93.6536 17.477 93.9336 17.687C94.2136 17.897 94.3536 18.24 94.3536 18.716V21.047C94.3536 21.635 94.1716 22.111 93.8076 22.475C93.4436 22.825 92.9676 23 92.3796 23H91.2876C90.6996 23 90.2236 22.825 89.8596 22.475C89.4956 22.111 89.3136 21.635 89.3136 21.047V19.703Z" fill="url(#paint2_linear_43_3)"/>
</g>
<defs>
<linearGradient id="paint0_linear_43_3" x1="-6" y1="16" x2="24" y2="16" gradientUnits="userSpaceOnUse">
<stop offset="0.665" stop-color="#4489F6"/>
<stop offset="1" stop-color="#997BF8"/>
</linearGradient>
<linearGradient id="paint1_linear_43_3" x1="38" y1="0" x2="35.5" y2="28.5" gradientUnits="userSpaceOnUse">
<stop offset="0.06" stop-color="#4489F6"/>
<stop offset="0.54" stop-color="#B9C8D3"/>
<stop offset="0.95" stop-color="#997BF8"/>
</linearGradient>
<linearGradient id="paint2_linear_43_3" x1="56.5" y1="18" x2="94" y2="18.5" gradientUnits="userSpaceOnUse">
<stop stop-color="#4489F6"/>
<stop offset="1" stop-color="#997BF8" stop-opacity="0.4"/>
</linearGradient>
<clipPath id="clip0_43_3">
<rect width="97" height="30" fill="white"/>
</clipPath>
</defs>
</svg>
