<svg width="97" height="30" viewBox="0 0 97 30" fill="none" xmlns="http://www.w3.org/2000/svg">
<g clip-path="url(#clip0_3_3)">
<g filter="url(#filter0_d_3_3)">
<path d="M2.415 18.8V21.026C2.415 21.096 2.45 21.131 2.52 21.131H3.36C3.43 21.131 3.465 21.096 3.465 21.026V17.246L1.806 16.511C1.68 16.469 1.505 16.399 1.281 16.301C1.057 16.189 0.854 16.028 0.672 15.818C0.504 15.608 0.42 15.321 0.42 14.957V10.169C0.42 9.581 0.602 9.112 0.966 8.762C1.33 8.398 1.806 8.216 2.394 8.216H3.486C4.074 8.216 4.55 8.398 4.914 8.762C5.278 9.112 5.46 9.581 5.46 10.169V13.277L3.465 13.109V10.274C3.465 10.204 3.43 10.169 3.36 10.169H2.52C2.45 10.169 2.415 10.204 2.415 10.274V14.663L4.074 15.398C4.2 15.454 4.375 15.531 4.599 15.629C4.823 15.727 5.019 15.881 5.187 16.091C5.369 16.301 5.46 16.588 5.46 16.952V21.131C5.46 21.719 5.278 22.195 4.914 22.559C4.55 22.909 4.074 23.084 3.486 23.084H2.394C1.806 23.084 1.33 22.909 0.966 22.559C0.602 22.195 0.42 21.719 0.42 21.131V18.8H2.415ZM10.1697 21.047V23H8.95174C8.36374 23 7.88774 22.825 7.52374 22.475C7.15974 22.111 6.97774 21.635 6.97774 21.047V14.453H6.09574L6.26374 12.5H6.97774V10.253H6.45274L6.62074 8.3H8.97274V12.5H10.1697L10.0017 14.453H8.97274V21.047H10.1697ZM10.6944 21.131V14.369C10.6944 13.781 10.8764 13.312 11.2404 12.962C11.6044 12.598 12.0804 12.416 12.6684 12.416H13.9704C14.5584 12.416 15.0344 12.598 15.3984 12.962C15.7624 13.312 15.9444 13.781 15.9444 14.369V16.952H13.9494V14.474C13.9494 14.404 13.9144 14.369 13.8444 14.369H12.7944C12.7244 14.369 12.6894 14.404 12.6894 14.474V16.952H15.9444V18.905H12.6894V21.026C12.6894 21.096 12.7244 21.131 12.7944 21.131H13.8444C13.9144 21.131 13.9494 21.103 13.9494 21.047V19.892H15.9444V21.131C15.9444 21.719 15.7624 22.195 15.3984 22.559C15.0344 22.909 14.5584 23.084 13.9704 23.084H12.6684C12.0804 23.084 11.6044 22.909 11.2404 22.559C10.8764 22.195 10.6944 21.719 10.6944 21.131ZM19.0742 25.793H17.0792V14.453H16.5752L16.7852 12.5H19.0742V13.319L19.5992 12.5H20.1662C20.8102 12.5 21.3212 12.682 21.6992 13.046C22.0912 13.41 22.2872 13.879 22.2872 14.453V21.047C22.2872 21.607 22.0912 22.076 21.6992 22.454C21.3212 22.818 20.8102 23 20.1662 23H20.0822C19.7042 23 19.3682 22.909 19.0742 22.727V25.793ZM20.1872 14.453H19.0742V21.047H20.1872C20.2572 21.047 20.2922 21.012 20.2922 20.942V14.558C20.2922 14.488 20.2572 14.453 20.1872 14.453Z" fill="url(#paint0_radial_3_3)"/>
</g>
<g filter="url(#filter1_d_3_3)">
<mask id="path-2-inside-1_3_3" fill="white">
<path d="M32.92 14.243C33.368 14.243 33.718 14.369 33.97 14.621C34.236 14.873 34.369 15.223 34.369 15.671C34.369 15.783 34.362 15.902 34.348 16.028C34.334 16.14 34.306 16.238 34.264 16.322C34.082 16.294 33.879 16.273 33.655 16.259C33.431 16.231 33.165 16.217 32.857 16.217C32.227 16.217 31.597 16.273 30.967 16.385C30.337 16.497 29.735 16.588 29.161 16.658C28.531 18.142 28.013 19.535 27.607 20.837C27.201 22.139 26.886 23.427 26.662 24.701C26.186 24.589 25.766 24.386 25.402 24.092C25.038 23.798 24.695 23.385 24.373 22.853C24.471 22.629 24.59 22.363 24.73 22.055C24.87 21.733 25.038 21.334 25.234 20.858C25.43 20.368 25.661 19.78 25.927 19.094C26.207 18.394 26.536 17.561 26.914 16.595C26.326 16.399 25.941 16.056 25.759 15.566C25.829 15.496 26.025 15.419 26.347 15.335C26.669 15.237 27.061 15.132 27.523 15.02C27.733 14.474 27.915 13.991 28.069 13.571C28.223 13.137 28.363 12.731 28.489 12.353C28.615 11.961 28.727 11.583 28.825 11.219C28.937 10.841 29.035 10.442 29.119 10.022H29.014C28.482 10.022 28.048 9.896 27.712 9.644C27.39 9.392 27.229 9.063 27.229 8.657C27.229 8.545 27.243 8.412 27.271 8.258C27.313 8.104 27.362 7.971 27.418 7.859C27.684 7.901 27.943 7.929 28.195 7.943C28.461 7.957 28.804 7.964 29.224 7.964C30.106 7.964 30.932 7.943 31.702 7.901C32.472 7.845 33.165 7.789 33.781 7.733C34.411 7.677 34.95 7.628 35.398 7.586C35.846 7.53 36.189 7.502 36.427 7.502C36.749 7.502 37.036 7.67 37.288 8.006C37.54 8.342 37.736 8.818 37.876 9.434C37.428 9.392 37.064 9.364 36.784 9.35C36.518 9.336 36.28 9.329 36.07 9.329C35.356 9.329 34.698 9.364 34.096 9.434C33.508 9.49 32.948 9.56 32.416 9.644C32.332 9.77 32.234 9.931 32.122 10.127C32.024 10.323 31.891 10.603 31.723 10.967C31.555 11.317 31.338 11.779 31.072 12.353C30.82 12.927 30.498 13.655 30.106 14.537C30.652 14.453 31.17 14.383 31.66 14.327C32.164 14.271 32.584 14.243 32.92 14.243ZM37.7943 23.735C36.9963 23.651 36.3593 23.301 35.8833 22.685C35.4073 22.069 35.1693 21.285 35.1693 20.333C35.1693 19.773 35.2533 19.192 35.4213 18.59C35.5893 17.988 35.8273 17.407 36.1353 16.847C36.4433 16.273 36.8073 15.734 37.2273 15.23C37.6473 14.726 38.1023 14.292 38.5923 13.928C39.3623 13.354 40.0833 13.067 40.7553 13.067C41.2033 13.305 41.6443 13.802 42.0783 14.558C42.1483 14.558 42.2113 14.558 42.2673 14.558C42.3233 14.544 42.3863 14.537 42.4563 14.537C43.1983 14.537 43.5693 15.195 43.5693 16.511C43.5693 17.393 43.4223 18.233 43.1283 19.031C42.8483 19.815 42.4493 20.529 41.9313 21.173C41.4273 21.817 40.8183 22.363 40.1043 22.811C39.4043 23.245 38.6343 23.553 37.7943 23.735ZM38.8653 17.12C38.6273 17.442 38.4033 17.792 38.1933 18.17C37.9833 18.548 37.8013 18.933 37.6473 19.325C37.4933 19.703 37.3743 20.074 37.2903 20.438C37.2063 20.788 37.1643 21.103 37.1643 21.383C37.1643 21.719 37.2203 22.041 37.3323 22.349C37.4443 22.657 37.5703 22.832 37.7103 22.874C38.3403 22.734 38.9143 22.475 39.4323 22.097C39.9643 21.705 40.4193 21.222 40.7973 20.648C41.1893 20.074 41.4903 19.423 41.7003 18.695C41.9243 17.967 42.0363 17.19 42.0363 16.364C42.0363 16 42.0153 15.713 41.9733 15.503C41.9313 15.293 41.8613 15.111 41.7633 14.957C41.1473 15.139 40.5943 15.433 40.1043 15.839C39.6283 16.245 39.2153 16.672 38.8653 17.12ZM44.0818 22.58C44.1518 22.174 44.2708 21.642 44.4388 20.984C44.6208 20.312 44.8308 19.605 45.0688 18.863C45.3068 18.107 45.5588 17.351 45.8248 16.595C46.0908 15.839 46.3498 15.16 46.6018 14.558C46.7838 14.124 46.9448 13.788 47.0848 13.55C47.2248 13.298 47.3788 13.088 47.5468 12.92C47.7428 12.948 47.9458 12.997 48.1558 13.067C48.3658 13.137 48.5688 13.221 48.7648 13.319C48.9608 13.417 49.1358 13.522 49.2898 13.634C49.4438 13.732 49.5628 13.83 49.6468 13.928C49.2688 14.376 48.9328 14.887 48.6388 15.461C48.3588 16.035 48.0718 16.77 47.7778 17.666C48.5338 16.994 49.1988 16.35 49.7728 15.734C50.3608 15.118 50.9068 14.432 51.4108 13.676C51.4948 13.606 51.6418 13.571 51.8518 13.571C52.0478 13.571 52.2368 13.606 52.4188 13.676C52.6008 13.732 52.7268 13.816 52.7968 13.928C52.5448 14.6 52.4188 15.265 52.4188 15.923C52.4188 16.539 52.5098 17.001 52.6918 17.309C52.6778 17.393 52.5798 17.554 52.3978 17.792C52.2298 18.03 52.0408 18.254 51.8308 18.464C51.4528 18.268 51.1168 18.002 50.8228 17.666C50.5288 17.316 50.3118 16.938 50.1718 16.532C49.5138 16.994 48.9538 17.449 48.4918 17.897C48.0298 18.331 47.6308 18.821 47.2948 19.367C46.9728 19.899 46.6928 20.515 46.4548 21.215C46.2308 21.915 46.0138 22.748 45.8038 23.714C45.6778 23.7 45.5238 23.651 45.3418 23.567C45.1738 23.497 44.9988 23.406 44.8168 23.294C44.6488 23.182 44.4948 23.063 44.3548 22.937C44.2148 22.811 44.1238 22.692 44.0818 22.58Z"/>
</mask>
<path d="M32.92 14.243C33.368 14.243 33.718 14.369 33.97 14.621C34.236 14.873 34.369 15.223 34.369 15.671C34.369 15.783 34.362 15.902 34.348 16.028C34.334 16.14 34.306 16.238 34.264 16.322C34.082 16.294 33.879 16.273 33.655 16.259C33.431 16.231 33.165 16.217 32.857 16.217C32.227 16.217 31.597 16.273 30.967 16.385C30.337 16.497 29.735 16.588 29.161 16.658C28.531 18.142 28.013 19.535 27.607 20.837C27.201 22.139 26.886 23.427 26.662 24.701C26.186 24.589 25.766 24.386 25.402 24.092C25.038 23.798 24.695 23.385 24.373 22.853C24.471 22.629 24.59 22.363 24.73 22.055C24.87 21.733 25.038 21.334 25.234 20.858C25.43 20.368 25.661 19.78 25.927 19.094C26.207 18.394 26.536 17.561 26.914 16.595C26.326 16.399 25.941 16.056 25.759 15.566C25.829 15.496 26.025 15.419 26.347 15.335C26.669 15.237 27.061 15.132 27.523 15.02C27.733 14.474 27.915 13.991 28.069 13.571C28.223 13.137 28.363 12.731 28.489 12.353C28.615 11.961 28.727 11.583 28.825 11.219C28.937 10.841 29.035 10.442 29.119 10.022H29.014C28.482 10.022 28.048 9.896 27.712 9.644C27.39 9.392 27.229 9.063 27.229 8.657C27.229 8.545 27.243 8.412 27.271 8.258C27.313 8.104 27.362 7.971 27.418 7.859C27.684 7.901 27.943 7.929 28.195 7.943C28.461 7.957 28.804 7.964 29.224 7.964C30.106 7.964 30.932 7.943 31.702 7.901C32.472 7.845 33.165 7.789 33.781 7.733C34.411 7.677 34.95 7.628 35.398 7.586C35.846 7.53 36.189 7.502 36.427 7.502C36.749 7.502 37.036 7.67 37.288 8.006C37.54 8.342 37.736 8.818 37.876 9.434C37.428 9.392 37.064 9.364 36.784 9.35C36.518 9.336 36.28 9.329 36.07 9.329C35.356 9.329 34.698 9.364 34.096 9.434C33.508 9.49 32.948 9.56 32.416 9.644C32.332 9.77 32.234 9.931 32.122 10.127C32.024 10.323 31.891 10.603 31.723 10.967C31.555 11.317 31.338 11.779 31.072 12.353C30.82 12.927 30.498 13.655 30.106 14.537C30.652 14.453 31.17 14.383 31.66 14.327C32.164 14.271 32.584 14.243 32.92 14.243ZM37.7943 23.735C36.9963 23.651 36.3593 23.301 35.8833 22.685C35.4073 22.069 35.1693 21.285 35.1693 20.333C35.1693 19.773 35.2533 19.192 35.4213 18.59C35.5893 17.988 35.8273 17.407 36.1353 16.847C36.4433 16.273 36.8073 15.734 37.2273 15.23C37.6473 14.726 38.1023 14.292 38.5923 13.928C39.3623 13.354 40.0833 13.067 40.7553 13.067C41.2033 13.305 41.6443 13.802 42.0783 14.558C42.1483 14.558 42.2113 14.558 42.2673 14.558C42.3233 14.544 42.3863 14.537 42.4563 14.537C43.1983 14.537 43.5693 15.195 43.5693 16.511C43.5693 17.393 43.4223 18.233 43.1283 19.031C42.8483 19.815 42.4493 20.529 41.9313 21.173C41.4273 21.817 40.8183 22.363 40.1043 22.811C39.4043 23.245 38.6343 23.553 37.7943 23.735ZM38.8653 17.12C38.6273 17.442 38.4033 17.792 38.1933 18.17C37.9833 18.548 37.8013 18.933 37.6473 19.325C37.4933 19.703 37.3743 20.074 37.2903 20.438C37.2063 20.788 37.1643 21.103 37.1643 21.383C37.1643 21.719 37.2203 22.041 37.3323 22.349C37.4443 22.657 37.5703 22.832 37.7103 22.874C38.3403 22.734 38.9143 22.475 39.4323 22.097C39.9643 21.705 40.4193 21.222 40.7973 20.648C41.1893 20.074 41.4903 19.423 41.7003 18.695C41.9243 17.967 42.0363 17.19 42.0363 16.364C42.0363 16 42.0153 15.713 41.9733 15.503C41.9313 15.293 41.8613 15.111 41.7633 14.957C41.1473 15.139 40.5943 15.433 40.1043 15.839C39.6283 16.245 39.2153 16.672 38.8653 17.12ZM44.0818 22.58C44.1518 22.174 44.2708 21.642 44.4388 20.984C44.6208 20.312 44.8308 19.605 45.0688 18.863C45.3068 18.107 45.5588 17.351 45.8248 16.595C46.0908 15.839 46.3498 15.16 46.6018 14.558C46.7838 14.124 46.9448 13.788 47.0848 13.55C47.2248 13.298 47.3788 13.088 47.5468 12.92C47.7428 12.948 47.9458 12.997 48.1558 13.067C48.3658 13.137 48.5688 13.221 48.7648 13.319C48.9608 13.417 49.1358 13.522 49.2898 13.634C49.4438 13.732 49.5628 13.83 49.6468 13.928C49.2688 14.376 48.9328 14.887 48.6388 15.461C48.3588 16.035 48.0718 16.77 47.7778 17.666C48.5338 16.994 49.1988 16.35 49.7728 15.734C50.3608 15.118 50.9068 14.432 51.4108 13.676C51.4948 13.606 51.6418 13.571 51.8518 13.571C52.0478 13.571 52.2368 13.606 52.4188 13.676C52.6008 13.732 52.7268 13.816 52.7968 13.928C52.5448 14.6 52.4188 15.265 52.4188 15.923C52.4188 16.539 52.5098 17.001 52.6918 17.309C52.6778 17.393 52.5798 17.554 52.3978 17.792C52.2298 18.03 52.0408 18.254 51.8308 18.464C51.4528 18.268 51.1168 18.002 50.8228 17.666C50.5288 17.316 50.3118 16.938 50.1718 16.532C49.5138 16.994 48.9538 17.449 48.4918 17.897C48.0298 18.331 47.6308 18.821 47.2948 19.367C46.9728 19.899 46.6928 20.515 46.4548 21.215C46.2308 21.915 46.0138 22.748 45.8038 23.714C45.6778 23.7 45.5238 23.651 45.3418 23.567C45.1738 23.497 44.9988 23.406 44.8168 23.294C44.6488 23.182 44.4948 23.063 44.3548 22.937C44.2148 22.811 44.1238 22.692 44.0818 22.58Z" fill="url(#paint1_linear_3_3)" fill-opacity="0.96" shape-rendering="crispEdges"/>
<path d="M33.97 14.621L33.2629 15.3281L33.2724 15.3377L33.2823 15.347L33.97 14.621ZM34.348 16.028L35.3404 16.152L35.3419 16.1384L34.348 16.028ZM34.264 16.322L34.1119 17.3104L34.8324 17.4212L35.1584 16.7692L34.264 16.322ZM33.655 16.259L33.531 17.2513L33.5617 17.2551L33.5926 17.2571L33.655 16.259ZM30.967 16.385L30.792 15.4004L30.792 15.4004L30.967 16.385ZM29.161 16.658L29.0399 15.6654L28.4663 15.7353L28.2405 16.2672L29.161 16.658ZM27.607 20.837L28.5617 21.1347V21.1347L27.607 20.837ZM26.662 24.701L26.433 25.6744L27.4636 25.9169L27.6469 24.8742L26.662 24.701ZM25.402 24.092L24.7737 24.8699L25.402 24.092ZM24.373 22.853L23.4568 22.4522L23.249 22.9272L23.5175 23.3708L24.373 22.853ZM24.73 22.055L25.6404 22.4688L25.6438 22.4613L25.6471 22.4537L24.73 22.055ZM25.234 20.858L26.1587 21.2388L26.1625 21.2294L25.234 20.858ZM25.927 19.094L24.9985 18.7226L24.9946 18.7325L25.927 19.094ZM26.914 16.595L27.8452 16.9594L28.2288 15.9792L27.2302 15.6463L26.914 16.595ZM25.759 15.566L25.0519 14.8589L24.5981 15.3126L24.8216 15.9142L25.759 15.566ZM26.347 15.335L26.5994 16.3026L26.6189 16.2975L26.6382 16.2917L26.347 15.335ZM27.523 15.02L27.7586 15.9918L28.2681 15.8683L28.4563 15.379L27.523 15.02ZM28.069 13.571L29.0079 13.9153L29.0114 13.9054L28.069 13.571ZM28.489 12.353L29.4377 12.6692L29.441 12.659L28.489 12.353ZM28.825 11.219L27.8662 10.9349L27.8626 10.9469L27.8594 10.959L28.825 11.219ZM29.119 10.022L30.0996 10.2181L30.3388 9.022H29.119V10.022ZM27.712 9.644L27.0957 10.4315L27.1038 10.4378L27.112 10.444L27.712 9.644ZM27.271 8.258L26.3062 7.99488L26.2949 8.03659L26.2871 8.07911L27.271 8.258ZM27.418 7.859L27.574 6.87124L26.8509 6.75708L26.5236 7.41178L27.418 7.859ZM28.195 7.943L28.1395 8.94146L28.1424 8.94162L28.195 7.943ZM31.702 7.901L31.7565 8.89952L31.7655 8.89902L31.7745 8.89837L31.702 7.901ZM33.781 7.733L33.6925 6.73692L33.6905 6.73711L33.781 7.733ZM35.398 7.586L35.4913 8.58163L35.5067 8.58019L35.522 8.57828L35.398 7.586ZM37.876 9.434L37.7827 10.4296L39.1571 10.5585L38.8511 9.21238L37.876 9.434ZM36.784 9.35L36.7314 10.3486L36.7341 10.3488L36.784 9.35ZM34.096 9.434L34.1908 10.4295L34.2012 10.4285L34.2115 10.4273L34.096 9.434ZM32.416 9.644L32.26 8.65624L31.8271 8.7246L31.584 9.0893L32.416 9.644ZM32.122 10.127L31.2538 9.63086L31.24 9.65496L31.2276 9.67979L32.122 10.127ZM31.723 10.967L32.6245 11.3997L32.6278 11.3929L32.631 11.3861L31.723 10.967ZM31.072 12.353L30.1647 11.9325L30.1604 11.9417L30.1564 11.951L31.072 12.353ZM30.106 14.537L29.1922 14.1309L28.4487 15.8037L30.2581 15.5254L30.106 14.537ZM31.66 14.327L31.5496 13.3331L31.5465 13.3335L31.66 14.327ZM32.92 15.243C33.1747 15.243 33.2438 15.309 33.2629 15.3281L34.6771 13.9139C34.1922 13.429 33.5613 13.243 32.92 13.243V15.243ZM33.2823 15.347C33.3058 15.3693 33.369 15.432 33.369 15.671H35.369C35.369 15.014 35.1662 14.3767 34.6577 13.895L33.2823 15.347ZM33.369 15.671C33.369 15.7417 33.3646 15.8235 33.3541 15.9176L35.3419 16.1384C35.3594 15.9805 35.369 15.8243 35.369 15.671H33.369ZM33.3557 15.904C33.353 15.9255 33.3518 15.9103 33.3696 15.8748L35.1584 16.7692C35.2602 16.5657 35.315 16.3545 35.3403 16.152L33.3557 15.904ZM34.4161 15.3336C34.1987 15.3002 33.9652 15.2764 33.7174 15.2609L33.5926 17.2571C33.7928 17.2696 33.9653 17.2878 34.1119 17.3104L34.4161 15.3336ZM33.779 15.2667C33.5022 15.2321 33.1927 15.217 32.857 15.217V17.217C33.1373 17.217 33.3598 17.2299 33.531 17.2513L33.779 15.2667ZM32.857 15.217C32.1674 15.217 31.4788 15.2783 30.792 15.4004L31.142 17.3696C31.7152 17.2677 32.2866 17.217 32.857 17.217V15.217ZM30.792 15.4004C30.178 15.5096 29.5941 15.5978 29.0399 15.6654L29.2821 17.6506C29.8759 17.5782 30.496 17.4844 31.142 17.3696L30.792 15.4004ZM28.2405 16.2672C27.5998 17.7764 27.0698 19.2007 26.6523 20.5393L28.5617 21.1347C28.9562 19.8693 29.4622 18.5076 30.0815 17.0488L28.2405 16.2672ZM26.6523 20.5393C26.2343 21.8799 25.9089 23.2095 25.6771 24.5278L27.6469 24.8742C27.8631 23.6445 28.1677 22.3981 28.5617 21.1347L26.6523 20.5393ZM26.891 23.7276C26.5544 23.6484 26.2723 23.5095 26.0303 23.3141L24.7737 24.8699C25.2597 25.2625 25.8176 25.5296 26.433 25.6744L26.891 23.7276ZM26.0303 23.3141C25.7808 23.1125 25.509 22.7987 25.2285 22.3352L23.5175 23.3708C23.881 23.9713 24.2952 24.4835 24.7737 24.8699L26.0303 23.3141ZM25.2892 23.2538C25.3847 23.0354 25.5016 22.774 25.6404 22.4688L23.8196 21.6412C23.6784 21.952 23.5573 22.2226 23.4568 22.4522L25.2892 23.2538ZM25.6471 22.4537C25.7906 22.1237 25.9612 21.7183 26.1587 21.2388L24.3093 20.4772C24.1148 20.9497 23.9494 21.3423 23.8129 21.6563L25.6471 22.4537ZM26.1625 21.2294C26.3602 20.7351 26.5925 20.1436 26.8594 19.4555L24.9946 18.7325C24.7295 19.4164 24.4998 20.0009 24.3055 20.4866L26.1625 21.2294ZM26.8555 19.4654C27.1367 18.7624 27.4666 17.9269 27.8452 16.9594L25.9828 16.2306C25.6054 17.1951 25.2773 18.0256 24.9985 18.7226L26.8555 19.4654ZM27.2302 15.6463C26.8701 15.5263 26.7529 15.3699 26.6964 15.2178L24.8216 15.9142C25.1291 16.7421 25.7819 17.2717 26.5978 17.5437L27.2302 15.6463ZM26.4661 16.2731C26.4261 16.3131 26.3909 16.3401 26.3684 16.356C26.3453 16.3723 26.3276 16.3826 26.3188 16.3874C26.3026 16.3964 26.3015 16.3954 26.3242 16.3865C26.3452 16.3782 26.3782 16.3665 26.4259 16.3516C26.4731 16.337 26.5306 16.3206 26.5994 16.3026L26.0946 14.3674C25.9144 14.4144 25.7426 14.4662 25.5928 14.525C25.479 14.5697 25.2433 14.6675 25.0519 14.8589L26.4661 16.2731ZM26.6382 16.2917C26.936 16.201 27.3083 16.101 27.7586 15.9918L27.2874 14.0481C26.8137 14.163 26.402 14.273 26.0558 14.3783L26.6382 16.2917ZM28.4563 15.379C28.6677 14.8295 28.8516 14.3414 29.0079 13.9153L27.1301 13.2267C26.9784 13.6406 26.7983 14.1185 26.5897 14.661L28.4563 15.379ZM29.0114 13.9054C29.1673 13.4663 29.3094 13.0542 29.4377 12.6692L27.5403 12.0368C27.4166 12.4078 27.2787 12.8077 27.1266 13.2366L29.0114 13.9054ZM29.441 12.659C29.5715 12.2531 29.6881 11.8598 29.7906 11.479L27.8594 10.959C27.7659 11.3062 27.6585 11.6688 27.537 12.047L29.441 12.659ZM29.7838 11.5031C29.9051 11.0938 30.0102 10.6652 30.0996 10.2181L28.1384 9.82588C28.0598 10.2188 27.9689 10.5882 27.8662 10.9349L29.7838 11.5031ZM29.119 9.022H29.014V11.022H29.119V9.022ZM29.014 9.022C28.6401 9.022 28.4334 8.93508 28.312 8.844L27.112 10.444C27.6626 10.8569 28.3239 11.022 29.014 11.022V9.022ZM28.3283 8.85649C28.2724 8.81274 28.2546 8.7823 28.248 8.7687C28.2414 8.75531 28.229 8.72436 28.229 8.657H26.229C26.229 9.37309 26.5335 9.99155 27.0957 10.4315L28.3283 8.85649ZM28.229 8.657C28.229 8.62335 28.2337 8.55318 28.2549 8.43689L26.2871 8.07911C26.2523 8.27081 26.229 8.46665 26.229 8.657H28.229ZM28.2358 8.52112C28.2649 8.41425 28.2926 8.34585 28.3124 8.30622L26.5236 7.41178C26.4314 7.59615 26.3611 7.79374 26.3062 7.99488L28.2358 8.52112ZM27.262 8.84676C27.5591 8.89367 27.8517 8.92547 28.1395 8.94146L28.2505 6.94454C28.0343 6.93253 27.8089 6.90833 27.574 6.87124L27.262 8.84676ZM28.1424 8.94162C28.4329 8.95691 28.7952 8.964 29.224 8.964V6.964C28.8128 6.964 28.4891 6.95709 28.2476 6.94438L28.1424 8.94162ZM29.224 8.964C30.1216 8.964 30.966 8.94263 31.7565 8.89952L31.6475 6.90248C30.898 6.94337 30.0904 6.964 29.224 6.964V8.964ZM31.7745 8.89837C32.5491 8.84203 33.2483 8.78555 33.8715 8.72889L33.6905 6.73711C33.0817 6.79245 32.3949 6.84797 31.6295 6.90363L31.7745 8.89837ZM33.8695 8.72907C34.5006 8.67298 35.0412 8.62383 35.4913 8.58163L35.3047 6.59037C34.8588 6.63217 34.3214 6.68102 33.6925 6.73693L33.8695 8.72907ZM35.522 8.57828C35.9584 8.52373 36.2522 8.502 36.427 8.502V6.502C36.1258 6.502 35.7336 6.53627 35.274 6.59372L35.522 8.57828ZM36.427 8.502C36.4194 8.502 36.4082 8.50085 36.396 8.49749C36.384 8.49419 36.3779 8.49061 36.3786 8.49101C36.3814 8.49267 36.4216 8.51745 36.488 8.606L38.088 7.406C37.71 6.90196 37.1555 6.502 36.427 6.502V8.502ZM36.488 8.606C36.6241 8.78753 36.7778 9.11393 36.9009 9.65562L38.8511 9.21238C38.6942 8.52207 38.4559 7.89647 38.088 7.406L36.488 8.606ZM37.9693 8.43836C37.5144 8.39571 37.1344 8.36627 36.8339 8.35125L36.7341 10.3488C36.9936 10.3617 37.3416 10.3883 37.7827 10.4296L37.9693 8.43836ZM36.8366 8.35138C36.5574 8.33669 36.3014 8.329 36.07 8.329V10.329C36.2586 10.329 36.4786 10.3353 36.7314 10.3486L36.8366 8.35138ZM36.07 8.329C35.324 8.329 34.6269 8.36553 33.9805 8.44069L34.2115 10.4273C34.7691 10.3625 35.388 10.329 36.07 10.329V8.329ZM34.0012 8.4385C33.3947 8.49627 32.8142 8.56874 32.26 8.65624L32.572 10.6318C33.0818 10.5513 33.6213 10.4837 34.1908 10.4295L34.0012 8.4385ZM31.584 9.0893C31.4827 9.24119 31.3722 9.42356 31.2538 9.63086L32.9902 10.6231C33.0958 10.4384 33.1813 10.2988 33.2481 10.1987L31.584 9.0893ZM31.2276 9.67979C31.1226 9.88976 30.9845 10.1808 30.815 10.5479L32.631 11.3861C32.7975 11.0252 32.9254 10.7562 33.0164 10.5742L31.2276 9.67979ZM30.8215 10.5343C30.6507 10.8901 30.4316 11.3566 30.1647 11.9325L31.9793 12.7735C32.2444 12.2014 32.4593 11.7439 32.6245 11.3997L30.8215 10.5343ZM30.1564 11.951C29.9052 12.5231 29.5839 13.2496 29.1922 14.1309L31.0198 14.9431C31.4121 14.0604 31.7348 13.3309 31.9876 12.755L30.1564 11.951ZM30.2581 15.5254C30.7927 15.4431 31.2978 15.3749 31.7735 15.3205L31.5465 13.3335C31.0422 13.3911 30.5113 13.4629 29.9539 13.5486L30.2581 15.5254ZM31.7704 15.3209C32.2542 15.2671 32.6344 15.243 32.92 15.243V13.243C32.5336 13.243 32.0738 13.2749 31.5496 13.3331L31.7704 15.3209ZM37.7943 23.735L37.6896 24.7295L37.8492 24.7463L38.0061 24.7123L37.7943 23.735ZM35.8833 22.685L35.092 23.2964L35.8833 22.685ZM35.4213 18.59L36.3845 18.8588L35.4213 18.59ZM36.1353 16.847L37.0116 17.3289L37.0165 17.3198L36.1353 16.847ZM37.2273 15.23L37.9955 15.8702L37.9955 15.8702L37.2273 15.23ZM38.5923 13.928L39.1886 14.7307L39.19 14.7297L38.5923 13.928ZM40.7553 13.067L41.2245 12.1839L41.0044 12.067H40.7553V13.067ZM42.0783 14.558L41.211 15.0559L41.4993 15.558H42.0783V14.558ZM42.2673 14.558V15.558H42.3904L42.5098 15.5281L42.2673 14.558ZM43.1283 19.031L42.1899 18.6853L42.1866 18.6947L43.1283 19.031ZM41.9313 21.173L41.152 20.5462L41.1438 20.5567L41.9313 21.173ZM40.1043 22.811L40.6312 23.6609L40.6358 23.6581L40.1043 22.811ZM38.8653 17.12L38.0773 16.5044L38.0691 16.5149L38.0611 16.5256L38.8653 17.12ZM37.6473 19.325L38.5735 19.7023L38.578 19.6907L37.6473 19.325ZM37.2903 20.438L38.2627 20.6714L38.2647 20.6629L37.2903 20.438ZM37.3323 22.349L36.3925 22.6907L37.3323 22.349ZM37.7103 22.874L37.4229 23.8318L37.6727 23.9067L37.9272 23.8502L37.7103 22.874ZM39.4323 22.097L40.0218 22.9048L40.0255 22.9021L39.4323 22.097ZM40.7973 20.648L39.9715 20.084L39.9668 20.091L39.9621 20.098L40.7973 20.648ZM41.7003 18.695L40.7445 18.4009L40.7419 18.4094L40.7395 18.4178L41.7003 18.695ZM41.9733 15.503L42.9539 15.3069V15.3069L41.9733 15.503ZM41.7633 14.957L42.607 14.4201L42.2025 13.7845L41.4799 13.998L41.7633 14.957ZM40.1043 15.839L39.4663 15.069L39.4608 15.0735L39.4554 15.0782L40.1043 15.839ZM37.899 22.7405C37.3631 22.6841 36.9779 22.4661 36.6746 22.0736L35.092 23.2964C35.7407 24.1359 36.6294 24.6179 37.6896 24.7295L37.899 22.7405ZM36.6746 22.0736C36.3619 21.6689 36.1693 21.1143 36.1693 20.333H34.1693C34.1693 21.4557 34.4527 22.4691 35.092 23.2964L36.6746 22.0736ZM36.1693 20.333C36.1693 19.8737 36.2381 19.3833 36.3845 18.8588L34.4581 18.3212C34.2685 19.0007 34.1693 19.6723 34.1693 20.333H36.1693ZM36.3845 18.8588C36.5313 18.3326 36.7398 17.823 37.0115 17.3289L35.2591 16.3651C34.9148 16.991 34.6473 17.6434 34.4581 18.3212L36.3845 18.8588ZM37.0165 17.3198C37.2923 16.8057 37.6184 16.3227 37.9955 15.8702L36.4591 14.5898C35.9962 15.1453 35.5943 15.7403 35.2541 16.3742L37.0165 17.3198ZM37.9955 15.8702C38.3686 15.4225 38.7667 15.0442 39.1886 14.7307L37.996 13.1253C37.4379 13.5398 36.926 14.0295 36.4591 14.5898L37.9955 15.8702ZM39.19 14.7297C39.859 14.231 40.3736 14.067 40.7553 14.067V12.067C39.793 12.067 38.8656 12.477 37.9946 13.1263L39.19 14.7297ZM40.2861 13.9501C40.487 14.0568 40.8114 14.3597 41.211 15.0559L42.9456 14.0601C42.4772 13.2443 41.9196 12.5532 41.2245 12.1839L40.2861 13.9501ZM42.0783 15.558C42.0784 15.558 42.0786 15.558 42.0787 15.558C42.0788 15.558 42.079 15.558 42.0791 15.558C42.0793 15.558 42.0794 15.558 42.0795 15.558C42.0797 15.558 42.0798 15.558 42.0799 15.558C42.0801 15.558 42.0802 15.558 42.0803 15.558C42.0805 15.558 42.0806 15.558 42.0808 15.558C42.0809 15.558 42.081 15.558 42.0812 15.558C42.0813 15.558 42.0814 15.558 42.0816 15.558C42.0817 15.558 42.0818 15.558 42.082 15.558C42.0821 15.558 42.0823 15.558 42.0824 15.558C42.0825 15.558 42.0827 15.558 42.0828 15.558C42.0829 15.558 42.0831 15.558 42.0832 15.558C42.0833 15.558 42.0835 15.558 42.0836 15.558C42.0838 15.558 42.0839 15.558 42.084 15.558C42.0842 15.558 42.0843 15.558 42.0844 15.558C42.0846 15.558 42.0847 15.558 42.0848 15.558C42.085 15.558 42.0851 15.558 42.0852 15.558C42.0854 15.558 42.0855 15.558 42.0857 15.558C42.0858 15.558 42.0859 15.558 42.0861 15.558C42.0862 15.558 42.0863 15.558 42.0865 15.558C42.0866 15.558 42.0867 15.558 42.0869 15.558C42.087 15.558 42.0871 15.558 42.0873 15.558C42.0874 15.558 42.0876 15.558 42.0877 15.558C42.0878 15.558 42.088 15.558 42.0881 15.558C42.0882 15.558 42.0884 15.558 42.0885 15.558C42.0886 15.558 42.0888 15.558 42.0889 15.558C42.089 15.558 42.0892 15.558 42.0893 15.558C42.0894 15.558 42.0896 15.558 42.0897 15.558C42.0899 15.558 42.09 15.558 42.0901 15.558C42.0903 15.558 42.0904 15.558 42.0905 15.558C42.0907 15.558 42.0908 15.558 42.0909 15.558C42.0911 15.558 42.0912 15.558 42.0913 15.558C42.0915 15.558 42.0916 15.558 42.0917 15.558C42.0919 15.558 42.092 15.558 42.0921 15.558C42.0923 15.558 42.0924 15.558 42.0926 15.558C42.0927 15.558 42.0928 15.558 42.093 15.558C42.0931 15.558 42.0932 15.558 42.0934 15.558C42.0935 15.558 42.0936 15.558 42.0938 15.558C42.0939 15.558 42.094 15.558 42.0942 15.558C42.0943 15.558 42.0944 15.558 42.0946 15.558C42.0947 15.558 42.0948 15.558 42.095 15.558C42.0951 15.558 42.0952 15.558 42.0954 15.558C42.0955 15.558 42.0957 15.558 42.0958 15.558C42.0959 15.558 42.0961 15.558 42.0962 15.558C42.0963 15.558 42.0965 15.558 42.0966 15.558C42.0967 15.558 42.0969 15.558 42.097 15.558C42.0971 15.558 42.0973 15.558 42.0974 15.558C42.0975 15.558 42.0977 15.558 42.0978 15.558C42.0979 15.558 42.0981 15.558 42.0982 15.558C42.0983 15.558 42.0985 15.558 42.0986 15.558C42.0987 15.558 42.0989 15.558 42.099 15.558C42.0991 15.558 42.0993 15.558 42.0994 15.558C42.0995 15.558 42.0997 15.558 42.0998 15.558C42.0999 15.558 42.1001 15.558 42.1002 15.558C42.1003 15.558 42.1005 15.558 42.1006 15.558C42.1007 15.558 42.1009 15.558 42.101 15.558C42.1011 15.558 42.1013 15.558 42.1014 15.558C42.1015 15.558 42.1017 15.558 42.1018 15.558C42.102 15.558 42.1021 15.558 42.1022 15.558C42.1024 15.558 42.1025 15.558 42.1026 15.558C42.1028 15.558 42.1029 15.558 42.103 15.558C42.1032 15.558 42.1033 15.558 42.1034 15.558C42.1036 15.558 42.1037 15.558 42.1038 15.558C42.104 15.558 42.1041 15.558 42.1042 15.558C42.1044 15.558 42.1045 15.558 42.1046 15.558C42.1048 15.558 42.1049 15.558 42.105 15.558C42.1052 15.558 42.1053 15.558 42.1054 15.558C42.1056 15.558 42.1057 15.558 42.1058 15.558C42.106 15.558 42.1061 15.558 42.1062 15.558C42.1063 15.558 42.1065 15.558 42.1066 15.558C42.1067 15.558 42.1069 15.558 42.107 15.558C42.1071 15.558 42.1073 15.558 42.1074 15.558C42.1075 15.558 42.1077 15.558 42.1078 15.558C42.1079 15.558 42.1081 15.558 42.1082 15.558C42.1083 15.558 42.1085 15.558 42.1086 15.558C42.1087 15.558 42.1089 15.558 42.109 15.558C42.1091 15.558 42.1093 15.558 42.1094 15.558C42.1095 15.558 42.1097 15.558 42.1098 15.558C42.1099 15.558 42.1101 15.558 42.1102 15.558C42.1103 15.558 42.1105 15.558 42.1106 15.558C42.1107 15.558 42.1109 15.558 42.111 15.558C42.1111 15.558 42.1113 15.558 42.1114 15.558C42.1115 15.558 42.1117 15.558 42.1118 15.558C42.1119 15.558 42.1121 15.558 42.1122 15.558C42.1123 15.558 42.1124 15.558 42.1126 15.558C42.1127 15.558 42.1128 15.558 42.113 15.558C42.1131 15.558 42.1132 15.558 42.1134 15.558C42.1135 15.558 42.1136 15.558 42.1138 15.558C42.1139 15.558 42.114 15.558 42.1142 15.558C42.1143 15.558 42.1144 15.558 42.1146 15.558C42.1147 15.558 42.1148 15.558 42.115 15.558C42.1151 15.558 42.1152 15.558 42.1154 15.558C42.1155 15.558 42.1156 15.558 42.1157 15.558C42.1159 15.558 42.116 15.558 42.1161 15.558C42.1163 15.558 42.1164 15.558 42.1165 15.558C42.1167 15.558 42.1168 15.558 42.1169 15.558C42.1171 15.558 42.1172 15.558 42.1173 15.558C42.1175 15.558 42.1176 15.558 42.1177 15.558C42.1179 15.558 42.118 15.558 42.1181 15.558C42.1182 15.558 42.1184 15.558 42.1185 15.558C42.1186 15.558 42.1188 15.558 42.1189 15.558C42.119 15.558 42.1192 15.558 42.1193 15.558C42.1194 15.558 42.1196 15.558 42.1197 15.558C42.1198 15.558 42.12 15.558 42.1201 15.558C42.1202 15.558 42.1203 15.558 42.1205 15.558C42.1206 15.558 42.1207 15.558 42.1209 15.558C42.121 15.558 42.1211 15.558 42.1213 15.558C42.1214 15.558 42.1215 15.558 42.1217 15.558C42.1218 15.558 42.1219 15.558 42.1221 15.558C42.1222 15.558 42.1223 15.558 42.1224 15.558C42.1226 15.558 42.1227 15.558 42.1228 15.558C42.123 15.558 42.1231 15.558 42.1232 15.558C42.1234 15.558 42.1235 15.558 42.1236 15.558C42.1238 15.558 42.1239 15.558 42.124 15.558C42.1241 15.558 42.1243 15.558 42.1244 15.558C42.1245 15.558 42.1247 15.558 42.1248 15.558C42.1249 15.558 42.1251 15.558 42.1252 15.558C42.1253 15.558 42.1255 15.558 42.1256 15.558C42.1257 15.558 42.1258 15.558 42.126 15.558C42.1261 15.558 42.1262 15.558 42.1264 15.558C42.1265 15.558 42.1266 15.558 42.1268 15.558C42.1269 15.558 42.127 15.558 42.1271 15.558C42.1273 15.558 42.1274 15.558 42.1275 15.558C42.1277 15.558 42.1278 15.558 42.1279 15.558C42.1281 15.558 42.1282 15.558 42.1283 15.558C42.1284 15.558 42.1286 15.558 42.1287 15.558C42.1288 15.558 42.129 15.558 42.1291 15.558C42.1292 15.558 42.1294 15.558 42.1295 15.558C42.1296 15.558 42.1297 15.558 42.1299 15.558C42.13 15.558 42.1301 15.558 42.1303 15.558C42.1304 15.558 42.1305 15.558 42.1307 15.558C42.1308 15.558 42.1309 15.558 42.131 15.558C42.1312 15.558 42.1313 15.558 42.1314 15.558C42.1316 15.558 42.1317 15.558 42.1318 15.558C42.132 15.558 42.1321 15.558 42.1322 15.558C42.1323 15.558 42.1325 15.558 42.1326 15.558C42.1327 15.558 42.1329 15.558 42.133 15.558C42.1331 15.558 42.1332 15.558 42.1334 15.558C42.1335 15.558 42.1336 15.558 42.1338 15.558C42.1339 15.558 42.134 15.558 42.1341 15.558C42.1343 15.558 42.1344 15.558 42.1345 15.558C42.1347 15.558 42.1348 15.558 42.1349 15.558C42.1351 15.558 42.1352 15.558 42.1353 15.558C42.1354 15.558 42.1356 15.558 42.1357 15.558C42.1358 15.558 42.136 15.558 42.1361 15.558C42.1362 15.558 42.1363 15.558 42.1365 15.558C42.1366 15.558 42.1367 15.558 42.1369 15.558C42.137 15.558 42.1371 15.558 42.1372 15.558C42.1374 15.558 42.1375 15.558 42.1376 15.558C42.1378 15.558 42.1379 15.558 42.138 15.558C42.1381 15.558 42.1383 15.558 42.1384 15.558C42.1385 15.558 42.1387 15.558 42.1388 15.558C42.1389 15.558 42.139 15.558 42.1392 15.558C42.1393 15.558 42.1394 15.558 42.1396 15.558C42.1397 15.558 42.1398 15.558 42.1399 15.558C42.1401 15.558 42.1402 15.558 42.1403 15.558C42.1405 15.558 42.1406 15.558 42.1407 15.558C42.1408 15.558 42.141 15.558 42.1411 15.558C42.1412 15.558 42.1414 15.558 42.1415 15.558C42.1416 15.558 42.1417 15.558 42.1419 15.558C42.142 15.558 42.1421 15.558 42.1423 15.558C42.1424 15.558 42.1425 15.558 42.1426 15.558C42.1428 15.558 42.1429 15.558 42.143 15.558C42.1432 15.558 42.1433 15.558 42.1434 15.558C42.1435 15.558 42.1437 15.558 42.1438 15.558C42.1439 15.558 42.144 15.558 42.1442 15.558C42.1443 15.558 42.1444 15.558 42.1446 15.558C42.1447 15.558 42.1448 15.558 42.1449 15.558C42.1451 15.558 42.1452 15.558 42.1453 15.558C42.1455 15.558 42.1456 15.558 42.1457 15.558C42.1458 15.558 42.146 15.558 42.1461 15.558C42.1462 15.558 42.1463 15.558 42.1465 15.558C42.1466 15.558 42.1467 15.558 42.1469 15.558C42.147 15.558 42.1471 15.558 42.1472 15.558C42.1474 15.558 42.1475 15.558 42.1476 15.558C42.1477 15.558 42.1479 15.558 42.148 15.558C42.1481 15.558 42.1483 15.558 42.1484 15.558C42.1485 15.558 42.1486 15.558 42.1488 15.558C42.1489 15.558 42.149 15.558 42.1491 15.558C42.1493 15.558 42.1494 15.558 42.1495 15.558C42.1497 15.558 42.1498 15.558 42.1499 15.558C42.15 15.558 42.1502 15.558 42.1503 15.558C42.1504 15.558 42.1505 15.558 42.1507 15.558C42.1508 15.558 42.1509 15.558 42.1511 15.558C42.1512 15.558 42.1513 15.558 42.1514 15.558C42.1516 15.558 42.1517 15.558 42.1518 15.558C42.1519 15.558 42.1521 15.558 42.1522 15.558C42.1523 15.558 42.1524 15.558 42.1526 15.558C42.1527 15.558 42.1528 15.558 42.153 15.558C42.1531 15.558 42.1532 15.558 42.1533 15.558C42.1535 15.558 42.1536 15.558 42.1537 15.558C42.1538 15.558 42.154 15.558 42.1541 15.558C42.1542 15.558 42.1543 15.558 42.1545 15.558C42.1546 15.558 42.1547 15.558 42.1549 15.558C42.155 15.558 42.1551 15.558 42.1552 15.558C42.1554 15.558 42.1555 15.558 42.1556 15.558C42.1557 15.558 42.1559 15.558 42.156 15.558C42.1561 15.558 42.1562 15.558 42.1564 15.558C42.1565 15.558 42.1566 15.558 42.1567 15.558C42.1569 15.558 42.157 15.558 42.1571 15.558C42.1572 15.558 42.1574 15.558 42.1575 15.558C42.1576 15.558 42.1578 15.558 42.1579 15.558C42.158 15.558 42.1581 15.558 42.1583 15.558C42.1584 15.558 42.1585 15.558 42.1586 15.558C42.1588 15.558 42.1589 15.558 42.159 15.558C42.1591 15.558 42.1593 15.558 42.1594 15.558C42.1595 15.558 42.1596 15.558 42.1598 15.558C42.1599 15.558 42.16 15.558 42.1601 15.558C42.1603 15.558 42.1604 15.558 42.1605 15.558C42.1606 15.558 42.1608 15.558 42.1609 15.558C42.161 15.558 42.1611 15.558 42.1613 15.558C42.1614 15.558 42.1615 15.558 42.1616 15.558C42.1618 15.558 42.1619 15.558 42.162 15.558C42.1622 15.558 42.1623 15.558 42.1624 15.558C42.1625 15.558 42.1627 15.558 42.1628 15.558C42.1629 15.558 42.163 15.558 42.1632 15.558C42.1633 15.558 42.1634 15.558 42.1635 15.558C42.1637 15.558 42.1638 15.558 42.1639 15.558C42.164 15.558 42.1642 15.558 42.1643 15.558C42.1644 15.558 42.1645 15.558 42.1647 15.558C42.1648 15.558 42.1649 15.558 42.165 15.558C42.1652 15.558 42.1653 15.558 42.1654 15.558C42.1655 15.558 42.1657 15.558 42.1658 15.558C42.1659 15.558 42.166 15.558 42.1662 15.558C42.1663 15.558 42.1664 15.558 42.1665 15.558C42.1667 15.558 42.1668 15.558 42.1669 15.558C42.167 15.558 42.1672 15.558 42.1673 15.558C42.1674 15.558 42.1675 15.558 42.1676 15.558C42.1678 15.558 42.1679 15.558 42.168 15.558C42.1681 15.558 42.1683 15.558 42.1684 15.558C42.1685 15.558 42.1686 15.558 42.1688 15.558C42.1689 15.558 42.169 15.558 42.1691 15.558C42.1693 15.558 42.1694 15.558 42.1695 15.558C42.1696 15.558 42.1698 15.558 42.1699 15.558C42.17 15.558 42.1701 15.558 42.1703 15.558C42.1704 15.558 42.1705 15.558 42.1706 15.558C42.1708 15.558 42.1709 15.558 42.171 15.558C42.1711 15.558 42.1713 15.558 42.1714 15.558C42.1715 15.558 42.1716 15.558 42.1717 15.558C42.1719 15.558 42.172 15.558 42.1721 15.558C42.1722 15.558 42.1724 15.558 42.1725 15.558C42.1726 15.558 42.1727 15.558 42.1729 15.558C42.173 15.558 42.1731 15.558 42.1732 15.558C42.1734 15.558 42.1735 15.558 42.1736 15.558C42.1737 15.558 42.1739 15.558 42.174 15.558C42.1741 15.558 42.1742 15.558 42.1743 15.558C42.1745 15.558 42.1746 15.558 42.1747 15.558C42.1748 15.558 42.175 15.558 42.1751 15.558C42.1752 15.558 42.1753 15.558 42.1755 15.558C42.1756 15.558 42.1757 15.558 42.1758 15.558C42.176 15.558 42.1761 15.558 42.1762 15.558C42.1763 15.558 42.1764 15.558 42.1766 15.558C42.1767 15.558 42.1768 15.558 42.1769 15.558C42.1771 15.558 42.1772 15.558 42.1773 15.558C42.1774 15.558 42.1776 15.558 42.1777 15.558C42.1778 15.558 42.1779 15.558 42.178 15.558C42.1782 15.558 42.1783 15.558 42.1784 15.558C42.1785 15.558 42.1787 15.558 42.1788 15.558C42.1789 15.558 42.179 15.558 42.1792 15.558C42.1793 15.558 42.1794 15.558 42.1795 15.558C42.1796 15.558 42.1798 15.558 42.1799 15.558C42.18 15.558 42.1801 15.558 42.1803 15.558C42.1804 15.558 42.1805 15.558 42.1806 15.558C42.1807 15.558 42.1809 15.558 42.181 15.558C42.1811 15.558 42.1812 15.558 42.1814 15.558C42.1815 15.558 42.1816 15.558 42.1817 15.558C42.1819 15.558 42.182 15.558 42.1821 15.558C42.1822 15.558 42.1823 15.558 42.1825 15.558C42.1826 15.558 42.1827 15.558 42.1828 15.558C42.183 15.558 42.1831 15.558 42.1832 15.558C42.1833 15.558 42.1834 15.558 42.1836 15.558C42.1837 15.558 42.1838 15.558 42.1839 15.558C42.1841 15.558 42.1842 15.558 42.1843 15.558C42.1844 15.558 42.1845 15.558 42.1847 15.558C42.1848 15.558 42.1849 15.558 42.185 15.558C42.1852 15.558 42.1853 15.558 42.1854 15.558C42.1855 15.558 42.1856 15.558 42.1858 15.558C42.1859 15.558 42.186 15.558 42.1861 15.558C42.1863 15.558 42.1864 15.558 42.1865 15.558C42.1866 15.558 42.1867 15.558 42.1869 15.558C42.187 15.558 42.1871 15.558 42.1872 15.558C42.1873 15.558 42.1875 15.558 42.1876 15.558C42.1877 15.558 42.1878 15.558 42.188 15.558C42.1881 15.558 42.1882 15.558 42.1883 15.558C42.1884 15.558 42.1886 15.558 42.1887 15.558C42.1888 15.558 42.1889 15.558 42.189 15.558C42.1892 15.558 42.1893 15.558 42.1894 15.558C42.1895 15.558 42.1897 15.558 42.1898 15.558C42.1899 15.558 42.19 15.558 42.1901 15.558C42.1903 15.558 42.1904 15.558 42.1905 15.558C42.1906 15.558 42.1907 15.558 42.1909 15.558C42.191 15.558 42.1911 15.558 42.1912 15.558C42.1914 15.558 42.1915 15.558 42.1916 15.558C42.1917 15.558 42.1918 15.558 42.192 15.558C42.1921 15.558 42.1922 15.558 42.1923 15.558C42.1924 15.558 42.1926 15.558 42.1927 15.558C42.1928 15.558 42.1929 15.558 42.193 15.558C42.1932 15.558 42.1933 15.558 42.1934 15.558C42.1935 15.558 42.1937 15.558 42.1938 15.558C42.1939 15.558 42.194 15.558 42.1941 15.558C42.1943 15.558 42.1944 15.558 42.1945 15.558C42.1946 15.558 42.1947 15.558 42.1949 15.558C42.195 15.558 42.1951 15.558 42.1952 15.558C42.1953 15.558 42.1955 15.558 42.1956 15.558C42.1957 15.558 42.1958 15.558 42.1959 15.558C42.1961 15.558 42.1962 15.558 42.1963 15.558C42.1964 15.558 42.1965 15.558 42.1967 15.558C42.1968 15.558 42.1969 15.558 42.197 15.558C42.1971 15.558 42.1973 15.558 42.1974 15.558C42.1975 15.558 42.1976 15.558 42.1977 15.558C42.1979 15.558 42.198 15.558 42.1981 15.558C42.1982 15.558 42.1983 15.558 42.1985 15.558C42.1986 15.558 42.1987 15.558 42.1988 15.558C42.1989 15.558 42.1991 15.558 42.1992 15.558C42.1993 15.558 42.1994 15.558 42.1995 15.558C42.1997 15.558 42.1998 15.558 42.1999 15.558C42.2 15.558 42.2001 15.558 42.2003 15.558C42.2004 15.558 42.2005 15.558 42.2006 15.558C42.2007 15.558 42.2009 15.558 42.201 15.558C42.2011 15.558 42.2012 15.558 42.2013 15.558C42.2015 15.558 42.2016 15.558 42.2017 15.558C42.2018 15.558 42.2019 15.558 42.2021 15.558C42.2022 15.558 42.2023 15.558 42.2024 15.558C42.2025 15.558 42.2027 15.558 42.2028 15.558C42.2029 15.558 42.203 15.558 42.2031 15.558C42.2033 15.558 42.2034 15.558 42.2035 15.558C42.2036 15.558 42.2037 15.558 42.2039 15.558C42.204 15.558 42.2041 15.558 42.2042 15.558C42.2043 15.558 42.2044 15.558 42.2046 15.558C42.2047 15.558 42.2048 15.558 42.2049 15.558C42.205 15.558 42.2052 15.558 42.2053 15.558C42.2054 15.558 42.2055 15.558 42.2056 15.558C42.2058 15.558 42.2059 15.558 42.206 15.558C42.2061 15.558 42.2062 15.558 42.2064 15.558C42.2065 15.558 42.2066 15.558 42.2067 15.558C42.2068 15.558 42.2069 15.558 42.2071 15.558C42.2072 15.558 42.2073 15.558 42.2074 15.558C42.2075 15.558 42.2077 15.558 42.2078 15.558C42.2079 15.558 42.208 15.558 42.2081 15.558C42.2083 15.558 42.2084 15.558 42.2085 15.558C42.2086 15.558 42.2087 15.558 42.2088 15.558C42.209 15.558 42.2091 15.558 42.2092 15.558C42.2093 15.558 42.2094 15.558 42.2096 15.558C42.2097 15.558 42.2098 15.558 42.2099 15.558C42.21 15.558 42.2101 15.558 42.2103 15.558C42.2104 15.558 42.2105 15.558 42.2106 15.558C42.2107 15.558 42.2109 15.558 42.211 15.558C42.2111 15.558 42.2112 15.558 42.2113 15.558C42.2114 15.558 42.2116 15.558 42.2117 15.558C42.2118 15.558 42.2119 15.558 42.212 15.558C42.2122 15.558 42.2123 15.558 42.2124 15.558C42.2125 15.558 42.2126 15.558 42.2127 15.558C42.2129 15.558 42.213 15.558 42.2131 15.558C42.2132 15.558 42.2133 15.558 42.2135 15.558C42.2136 15.558 42.2137 15.558 42.2138 15.558C42.2139 15.558 42.214 15.558 42.2142 15.558C42.2143 15.558 42.2144 15.558 42.2145 15.558C42.2146 15.558 42.2147 15.558 42.2149 15.558C42.215 15.558 42.2151 15.558 42.2152 15.558C42.2153 15.558 42.2155 15.558 42.2156 15.558C42.2157 15.558 42.2158 15.558 42.2159 15.558C42.216 15.558 42.2162 15.558 42.2163 15.558C42.2164 15.558 42.2165 15.558 42.2166 15.558C42.2167 15.558 42.2169 15.558 42.217 15.558C42.2171 15.558 42.2172 15.558 42.2173 15.558C42.2174 15.558 42.2176 15.558 42.2177 15.558C42.2178 15.558 42.2179 15.558 42.218 15.558C42.2182 15.558 42.2183 15.558 42.2184 15.558C42.2185 15.558 42.2186 15.558 42.2187 15.558C42.2189 15.558 42.219 15.558 42.2191 15.558C42.2192 15.558 42.2193 15.558 42.2194 15.558C42.2196 15.558 42.2197 15.558 42.2198 15.558C42.2199 15.558 42.22 15.558 42.2201 15.558C42.2203 15.558 42.2204 15.558 42.2205 15.558C42.2206 15.558 42.2207 15.558 42.2208 15.558C42.221 15.558 42.2211 15.558 42.2212 15.558C42.2213 15.558 42.2214 15.558 42.2215 15.558C42.2217 15.558 42.2218 15.558 42.2219 15.558C42.222 15.558 42.2221 15.558 42.2222 15.558C42.2224 15.558 42.2225 15.558 42.2226 15.558C42.2227 15.558 42.2228 15.558 42.2229 15.558C42.2231 15.558 42.2232 15.558 42.2233 15.558C42.2234 15.558 42.2235 15.558 42.2236 15.558C42.2238 15.558 42.2239 15.558 42.224 15.558C42.2241 15.558 42.2242 15.558 42.2243 15.558C42.2244 15.558 42.2246 15.558 42.2247 15.558C42.2248 15.558 42.2249 15.558 42.225 15.558C42.2251 15.558 42.2253 15.558 42.2254 15.558C42.2255 15.558 42.2256 15.558 42.2257 15.558C42.2258 15.558 42.226 15.558 42.2261 15.558C42.2262 15.558 42.2263 15.558 42.2264 15.558C42.2265 15.558 42.2267 15.558 42.2268 15.558C42.2269 15.558 42.227 15.558 42.2271 15.558C42.2272 15.558 42.2273 15.558 42.2275 15.558C42.2276 15.558 42.2277 15.558 42.2278 15.558C42.2279 15.558 42.228 15.558 42.2282 15.558C42.2283 15.558 42.2284 15.558 42.2285 15.558C42.2286 15.558 42.2287 15.558 42.2288 15.558C42.229 15.558 42.2291 15.558 42.2292 15.558C42.2293 15.558 42.2294 15.558 42.2295 15.558C42.2297 15.558 42.2298 15.558 42.2299 15.558C42.23 15.558 42.2301 15.558 42.2302 15.558C42.2304 15.558 42.2305 15.558 42.2306 15.558C42.2307 15.558 42.2308 15.558 42.2309 15.558C42.231 15.558 42.2312 15.558 42.2313 15.558C42.2314 15.558 42.2315 15.558 42.2316 15.558C42.2317 15.558 42.2318 15.558 42.232 15.558C42.2321 15.558 42.2322 15.558 42.2323 15.558C42.2324 15.558 42.2325 15.558 42.2327 15.558C42.2328 15.558 42.2329 15.558 42.233 15.558C42.2331 15.558 42.2332 15.558 42.2333 15.558C42.2335 15.558 42.2336 15.558 42.2337 15.558C42.2338 15.558 42.2339 15.558 42.234 15.558C42.2341 15.558 42.2343 15.558 42.2344 15.558C42.2345 15.558 42.2346 15.558 42.2347 15.558C42.2348 15.558 42.2349 15.558 42.2351 15.558C42.2352 15.558 42.2353 15.558 42.2354 15.558C42.2355 15.558 42.2356 15.558 42.2357 15.558C42.2359 15.558 42.236 15.558 42.2361 15.558C42.2362 15.558 42.2363 15.558 42.2364 15.558C42.2365 15.558 42.2367 15.558 42.2368 15.558C42.2369 15.558 42.237 15.558 42.2371 15.558C42.2372 15.558 42.2373 15.558 42.2375 15.558C42.2376 15.558 42.2377 15.558 42.2378 15.558C42.2379 15.558 42.238 15.558 42.2381 15.558C42.2383 15.558 42.2384 15.558 42.2385 15.558C42.2386 15.558 42.2387 15.558 42.2388 15.558C42.2389 15.558 42.2391 15.558 42.2392 15.558C42.2393 15.558 42.2394 15.558 42.2395 15.558C42.2396 15.558 42.2397 15.558 42.2399 15.558C42.24 15.558 42.2401 15.558 42.2402 15.558C42.2403 15.558 42.2404 15.558 42.2405 15.558C42.2406 15.558 42.2408 15.558 42.2409 15.558C42.241 15.558 42.2411 15.558 42.2412 15.558C42.2413 15.558 42.2414 15.558 42.2416 15.558C42.2417 15.558 42.2418 15.558 42.2419 15.558C42.242 15.558 42.2421 15.558 42.2422 15.558C42.2424 15.558 42.2425 15.558 42.2426 15.558C42.2427 15.558 42.2428 15.558 42.2429 15.558C42.243 15.558 42.2431 15.558 42.2433 15.558C42.2434 15.558 42.2435 15.558 42.2436 15.558C42.2437 15.558 42.2438 15.558 42.2439 15.558C42.244 15.558 42.2442 15.558 42.2443 15.558C42.2444 15.558 42.2445 15.558 42.2446 15.558C42.2447 15.558 42.2448 15.558 42.245 15.558C42.2451 15.558 42.2452 15.558 42.2453 15.558C42.2454 15.558 42.2455 15.558 42.2456 15.558C42.2457 15.558 42.2459 15.558 42.246 15.558C42.2461 15.558 42.2462 15.558 42.2463 15.558C42.2464 15.558 42.2465 15.558 42.2466 15.558C42.2468 15.558 42.2469 15.558 42.247 15.558C42.2471 15.558 42.2472 15.558 42.2473 15.558C42.2474 15.558 42.2475 15.558 42.2477 15.558C42.2478 15.558 42.2479 15.558 42.248 15.558C42.2481 15.558 42.2482 15.558 42.2483 15.558C42.2484 15.558 42.2486 15.558 42.2487 15.558C42.2488 15.558 42.2489 15.558 42.249 15.558C42.2491 15.558 42.2492 15.558 42.2493 15.558C42.2495 15.558 42.2496 15.558 42.2497 15.558C42.2498 15.558 42.2499 15.558 42.25 15.558C42.2501 15.558 42.2502 15.558 42.2504 15.558C42.2505 15.558 42.2506 15.558 42.2507 15.558C42.2508 15.558 42.2509 15.558 42.251 15.558C42.2511 15.558 42.2513 15.558 42.2514 15.558C42.2515 15.558 42.2516 15.558 42.2517 15.558C42.2518 15.558 42.2519 15.558 42.252 15.558C42.2521 15.558 42.2523 15.558 42.2524 15.558C42.2525 15.558 42.2526 15.558 42.2527 15.558C42.2528 15.558 42.2529 15.558 42.253 15.558C42.2532 15.558 42.2533 15.558 42.2534 15.558C42.2535 15.558 42.2536 15.558 42.2537 15.558C42.2538 15.558 42.2539 15.558 42.254 15.558C42.2542 15.558 42.2543 15.558 42.2544 15.558C42.2545 15.558 42.2546 15.558 42.2547 15.558C42.2548 15.558 42.2549 15.558 42.255 15.558C42.2552 15.558 42.2553 15.558 42.2554 15.558C42.2555 15.558 42.2556 15.558 42.2557 15.558C42.2558 15.558 42.2559 15.558 42.256 15.558C42.2562 15.558 42.2563 15.558 42.2564 15.558C42.2565 15.558 42.2566 15.558 42.2567 15.558C42.2568 15.558 42.2569 15.558 42.257 15.558C42.2572 15.558 42.2573 15.558 42.2574 15.558C42.2575 15.558 42.2576 15.558 42.2577 15.558C42.2578 15.558 42.2579 15.558 42.258 15.558C42.2582 15.558 42.2583 15.558 42.2584 15.558C42.2585 15.558 42.2586 15.558 42.2587 15.558C42.2588 15.558 42.2589 15.558 42.259 15.558C42.2592 15.558 42.2593 15.558 42.2594 15.558C42.2595 15.558 42.2596 15.558 42.2597 15.558C42.2598 15.558 42.2599 15.558 42.26 15.558C42.2602 15.558 42.2603 15.558 42.2604 15.558C42.2605 15.558 42.2606 15.558 42.2607 15.558C42.2608 15.558 42.2609 15.558 42.261 15.558C42.2611 15.558 42.2613 15.558 42.2614 15.558C42.2615 15.558 42.2616 15.558 42.2617 15.558C42.2618 15.558 42.2619 15.558 42.262 15.558C42.2621 15.558 42.2622 15.558 42.2624 15.558C42.2625 15.558 42.2626 15.558 42.2627 15.558C42.2628 15.558 42.2629 15.558 42.263 15.558C42.2631 15.558 42.2632 15.558 42.2633 15.558C42.2635 15.558 42.2636 15.558 42.2637 15.558C42.2638 15.558 42.2639 15.558 42.264 15.558C42.2641 15.558 42.2642 15.558 42.2643 15.558C42.2644 15.558 42.2646 15.558 42.2647 15.558C42.2648 15.558 42.2649 15.558 42.265 15.558C42.2651 15.558 42.2652 15.558 42.2653 15.558C42.2654 15.558 42.2655 15.558 42.2657 15.558C42.2658 15.558 42.2659 15.558 42.266 15.558C42.2661 15.558 42.2662 15.558 42.2663 15.558C42.2664 15.558 42.2665 15.558 42.2666 15.558C42.2668 15.558 42.2669 15.558 42.267 15.558C42.2671 15.558 42.2672 15.558 42.2673 15.558V13.558C42.2672 13.558 42.2671 13.558 42.267 13.558C42.2669 13.558 42.2668 13.558 42.2666 13.558C42.2665 13.558 42.2664 13.558 42.2663 13.558C42.2662 13.558 42.2661 13.558 42.266 13.558C42.2659 13.558 42.2658 13.558 42.2657 13.558C42.2655 13.558 42.2654 13.558 42.2653 13.558C42.2652 13.558 42.2651 13.558 42.265 13.558C42.2649 13.558 42.2648 13.558 42.2647 13.558C42.2646 13.558 42.2644 13.558 42.2643 13.558C42.2642 13.558 42.2641 13.558 42.264 13.558C42.2639 13.558 42.2638 13.558 42.2637 13.558C42.2636 13.558 42.2635 13.558 42.2633 13.558C42.2632 13.558 42.2631 13.558 42.263 13.558C42.2629 13.558 42.2628 13.558 42.2627 13.558C42.2626 13.558 42.2625 13.558 42.2624 13.558C42.2622 13.558 42.2621 13.558 42.262 13.558C42.2619 13.558 42.2618 13.558 42.2617 13.558C42.2616 13.558 42.2615 13.558 42.2614 13.558C42.2613 13.558 42.2611 13.558 42.261 13.558C42.2609 13.558 42.2608 13.558 42.2607 13.558C42.2606 13.558 42.2605 13.558 42.2604 13.558C42.2603 13.558 42.2602 13.558 42.26 13.558C42.2599 13.558 42.2598 13.558 42.2597 13.558C42.2596 13.558 42.2595 13.558 42.2594 13.558C42.2593 13.558 42.2592 13.558 42.259 13.558C42.2589 13.558 42.2588 13.558 42.2587 13.558C42.2586 13.558 42.2585 13.558 42.2584 13.558C42.2583 13.558 42.2582 13.558 42.258 13.558C42.2579 13.558 42.2578 13.558 42.2577 13.558C42.2576 13.558 42.2575 13.558 42.2574 13.558C42.2573 13.558 42.2572 13.558 42.257 13.558C42.2569 13.558 42.2568 13.558 42.2567 13.558C42.2566 13.558 42.2565 13.558 42.2564 13.558C42.2563 13.558 42.2562 13.558 42.256 13.558C42.2559 13.558 42.2558 13.558 42.2557 13.558C42.2556 13.558 42.2555 13.558 42.2554 13.558C42.2553 13.558 42.2552 13.558 42.255 13.558C42.2549 13.558 42.2548 13.558 42.2547 13.558C42.2546 13.558 42.2545 13.558 42.2544 13.558C42.2543 13.558 42.2542 13.558 42.254 13.558C42.2539 13.558 42.2538 13.558 42.2537 13.558C42.2536 13.558 42.2535 13.558 42.2534 13.558C42.2533 13.558 42.2532 13.558 42.253 13.558C42.2529 13.558 42.2528 13.558 42.2527 13.558C42.2526 13.558 42.2525 13.558 42.2524 13.558C42.2523 13.558 42.2521 13.558 42.252 13.558C42.2519 13.558 42.2518 13.558 42.2517 13.558C42.2516 13.558 42.2515 13.558 42.2514 13.558C42.2513 13.558 42.2511 13.558 42.251 13.558C42.2509 13.558 42.2508 13.558 42.2507 13.558C42.2506 13.558 42.2505 13.558 42.2504 13.558C42.2502 13.558 42.2501 13.558 42.25 13.558C42.2499 13.558 42.2498 13.558 42.2497 13.558C42.2496 13.558 42.2495 13.558 42.2493 13.558C42.2492 13.558 42.2491 13.558 42.249 13.558C42.2489 13.558 42.2488 13.558 42.2487 13.558C42.2486 13.558 42.2484 13.558 42.2483 13.558C42.2482 13.558 42.2481 13.558 42.248 13.558C42.2479 13.558 42.2478 13.558 42.2477 13.558C42.2475 13.558 42.2474 13.558 42.2473 13.558C42.2472 13.558 42.2471 13.558 42.247 13.558C42.2469 13.558 42.2468 13.558 42.2466 13.558C42.2465 13.558 42.2464 13.558 42.2463 13.558C42.2462 13.558 42.2461 13.558 42.246 13.558C42.2459 13.558 42.2457 13.558 42.2456 13.558C42.2455 13.558 42.2454 13.558 42.2453 13.558C42.2452 13.558 42.2451 13.558 42.245 13.558C42.2448 13.558 42.2447 13.558 42.2446 13.558C42.2445 13.558 42.2444 13.558 42.2443 13.558C42.2442 13.558 42.244 13.558 42.2439 13.558C42.2438 13.558 42.2437 13.558 42.2436 13.558C42.2435 13.558 42.2434 13.558 42.2433 13.558C42.2431 13.558 42.243 13.558 42.2429 13.558C42.2428 13.558 42.2427 13.558 42.2426 13.558C42.2425 13.558 42.2424 13.558 42.2422 13.558C42.2421 13.558 42.242 13.558 42.2419 13.558C42.2418 13.558 42.2417 13.558 42.2416 13.558C42.2414 13.558 42.2413 13.558 42.2412 13.558C42.2411 13.558 42.241 13.558 42.2409 13.558C42.2408 13.558 42.2406 13.558 42.2405 13.558C42.2404 13.558 42.2403 13.558 42.2402 13.558C42.2401 13.558 42.24 13.558 42.2399 13.558C42.2397 13.558 42.2396 13.558 42.2395 13.558C42.2394 13.558 42.2393 13.558 42.2392 13.558C42.2391 13.558 42.2389 13.558 42.2388 13.558C42.2387 13.558 42.2386 13.558 42.2385 13.558C42.2384 13.558 42.2383 13.558 42.2381 13.558C42.238 13.558 42.2379 13.558 42.2378 13.558C42.2377 13.558 42.2376 13.558 42.2375 13.558C42.2373 13.558 42.2372 13.558 42.2371 13.558C42.237 13.558 42.2369 13.558 42.2368 13.558C42.2367 13.558 42.2365 13.558 42.2364 13.558C42.2363 13.558 42.2362 13.558 42.2361 13.558C42.236 13.558 42.2359 13.558 42.2357 13.558C42.2356 13.558 42.2355 13.558 42.2354 13.558C42.2353 13.558 42.2352 13.558 42.2351 13.558C42.2349 13.558 42.2348 13.558 42.2347 13.558C42.2346 13.558 42.2345 13.558 42.2344 13.558C42.2343 13.558 42.2341 13.558 42.234 13.558C42.2339 13.558 42.2338 13.558 42.2337 13.558C42.2336 13.558 42.2335 13.558 42.2333 13.558C42.2332 13.558 42.2331 13.558 42.233 13.558C42.2329 13.558 42.2328 13.558 42.2327 13.558C42.2325 13.558 42.2324 13.558 42.2323 13.558C42.2322 13.558 42.2321 13.558 42.232 13.558C42.2318 13.558 42.2317 13.558 42.2316 13.558C42.2315 13.558 42.2314 13.558 42.2313 13.558C42.2312 13.558 42.231 13.558 42.2309 13.558C42.2308 13.558 42.2307 13.558 42.2306 13.558C42.2305 13.558 42.2304 13.558 42.2302 13.558C42.2301 13.558 42.23 13.558 42.2299 13.558C42.2298 13.558 42.2297 13.558 42.2295 13.558C42.2294 13.558 42.2293 13.558 42.2292 13.558C42.2291 13.558 42.229 13.558 42.2288 13.558C42.2287 13.558 42.2286 13.558 42.2285 13.558C42.2284 13.558 42.2283 13.558 42.2282 13.558C42.228 13.558 42.2279 13.558 42.2278 13.558C42.2277 13.558 42.2276 13.558 42.2275 13.558C42.2273 13.558 42.2272 13.558 42.2271 13.558C42.227 13.558 42.2269 13.558 42.2268 13.558C42.2267 13.558 42.2265 13.558 42.2264 13.558C42.2263 13.558 42.2262 13.558 42.2261 13.558C42.226 13.558 42.2258 13.558 42.2257 13.558C42.2256 13.558 42.2255 13.558 42.2254 13.558C42.2253 13.558 42.2251 13.558 42.225 13.558C42.2249 13.558 42.2248 13.558 42.2247 13.558C42.2246 13.558 42.2244 13.558 42.2243 13.558C42.2242 13.558 42.2241 13.558 42.224 13.558C42.2239 13.558 42.2238 13.558 42.2236 13.558C42.2235 13.558 42.2234 13.558 42.2233 13.558C42.2232 13.558 42.2231 13.558 42.2229 13.558C42.2228 13.558 42.2227 13.558 42.2226 13.558C42.2225 13.558 42.2224 13.558 42.2222 13.558C42.2221 13.558 42.222 13.558 42.2219 13.558C42.2218 13.558 42.2217 13.558 42.2215 13.558C42.2214 13.558 42.2213 13.558 42.2212 13.558C42.2211 13.558 42.221 13.558 42.2208 13.558C42.2207 13.558 42.2206 13.558 42.2205 13.558C42.2204 13.558 42.2203 13.558 42.2201 13.558C42.22 13.558 42.2199 13.558 42.2198 13.558C42.2197 13.558 42.2196 13.558 42.2194 13.558C42.2193 13.558 42.2192 13.558 42.2191 13.558C42.219 13.558 42.2189 13.558 42.2187 13.558C42.2186 13.558 42.2185 13.558 42.2184 13.558C42.2183 13.558 42.2182 13.558 42.218 13.558C42.2179 13.558 42.2178 13.558 42.2177 13.558C42.2176 13.558 42.2174 13.558 42.2173 13.558C42.2172 13.558 42.2171 13.558 42.217 13.558C42.2169 13.558 42.2167 13.558 42.2166 13.558C42.2165 13.558 42.2164 13.558 42.2163 13.558C42.2162 13.558 42.216 13.558 42.2159 13.558C42.2158 13.558 42.2157 13.558 42.2156 13.558C42.2155 13.558 42.2153 13.558 42.2152 13.558C42.2151 13.558 42.215 13.558 42.2149 13.558C42.2147 13.558 42.2146 13.558 42.2145 13.558C42.2144 13.558 42.2143 13.558 42.2142 13.558C42.214 13.558 42.2139 13.558 42.2138 13.558C42.2137 13.558 42.2136 13.558 42.2135 13.558C42.2133 13.558 42.2132 13.558 42.2131 13.558C42.213 13.558 42.2129 13.558 42.2127 13.558C42.2126 13.558 42.2125 13.558 42.2124 13.558C42.2123 13.558 42.2122 13.558 42.212 13.558C42.2119 13.558 42.2118 13.558 42.2117 13.558C42.2116 13.558 42.2114 13.558 42.2113 13.558C42.2112 13.558 42.2111 13.558 42.211 13.558C42.2109 13.558 42.2107 13.558 42.2106 13.558C42.2105 13.558 42.2104 13.558 42.2103 13.558C42.2101 13.558 42.21 13.558 42.2099 13.558C42.2098 13.558 42.2097 13.558 42.2096 13.558C42.2094 13.558 42.2093 13.558 42.2092 13.558C42.2091 13.558 42.209 13.558 42.2088 13.558C42.2087 13.558 42.2086 13.558 42.2085 13.558C42.2084 13.558 42.2083 13.558 42.2081 13.558C42.208 13.558 42.2079 13.558 42.2078 13.558C42.2077 13.558 42.2075 13.558 42.2074 13.558C42.2073 13.558 42.2072 13.558 42.2071 13.558C42.2069 13.558 42.2068 13.558 42.2067 13.558C42.2066 13.558 42.2065 13.558 42.2064 13.558C42.2062 13.558 42.2061 13.558 42.206 13.558C42.2059 13.558 42.2058 13.558 42.2056 13.558C42.2055 13.558 42.2054 13.558 42.2053 13.558C42.2052 13.558 42.205 13.558 42.2049 13.558C42.2048 13.558 42.2047 13.558 42.2046 13.558C42.2044 13.558 42.2043 13.558 42.2042 13.558C42.2041 13.558 42.204 13.558 42.2039 13.558C42.2037 13.558 42.2036 13.558 42.2035 13.558C42.2034 13.558 42.2033 13.558 42.2031 13.558C42.203 13.558 42.2029 13.558 42.2028 13.558C42.2027 13.558 42.2025 13.558 42.2024 13.558C42.2023 13.558 42.2022 13.558 42.2021 13.558C42.2019 13.558 42.2018 13.558 42.2017 13.558C42.2016 13.558 42.2015 13.558 42.2013 13.558C42.2012 13.558 42.2011 13.558 42.201 13.558C42.2009 13.558 42.2007 13.558 42.2006 13.558C42.2005 13.558 42.2004 13.558 42.2003 13.558C42.2001 13.558 42.2 13.558 42.1999 13.558C42.1998 13.558 42.1997 13.558 42.1995 13.558C42.1994 13.558 42.1993 13.558 42.1992 13.558C42.1991 13.558 42.1989 13.558 42.1988 13.558C42.1987 13.558 42.1986 13.558 42.1985 13.558C42.1983 13.558 42.1982 13.558 42.1981 13.558C42.198 13.558 42.1979 13.558 42.1977 13.558C42.1976 13.558 42.1975 13.558 42.1974 13.558C42.1973 13.558 42.1971 13.558 42.197 13.558C42.1969 13.558 42.1968 13.558 42.1967 13.558C42.1965 13.558 42.1964 13.558 42.1963 13.558C42.1962 13.558 42.1961 13.558 42.1959 13.558C42.1958 13.558 42.1957 13.558 42.1956 13.558C42.1955 13.558 42.1953 13.558 42.1952 13.558C42.1951 13.558 42.195 13.558 42.1949 13.558C42.1947 13.558 42.1946 13.558 42.1945 13.558C42.1944 13.558 42.1943 13.558 42.1941 13.558C42.194 13.558 42.1939 13.558 42.1938 13.558C42.1937 13.558 42.1935 13.558 42.1934 13.558C42.1933 13.558 42.1932 13.558 42.193 13.558C42.1929 13.558 42.1928 13.558 42.1927 13.558C42.1926 13.558 42.1924 13.558 42.1923 13.558C42.1922 13.558 42.1921 13.558 42.192 13.558C42.1918 13.558 42.1917 13.558 42.1916 13.558C42.1915 13.558 42.1914 13.558 42.1912 13.558C42.1911 13.558 42.191 13.558 42.1909 13.558C42.1907 13.558 42.1906 13.558 42.1905 13.558C42.1904 13.558 42.1903 13.558 42.1901 13.558C42.19 13.558 42.1899 13.558 42.1898 13.558C42.1897 13.558 42.1895 13.558 42.1894 13.558C42.1893 13.558 42.1892 13.558 42.189 13.558C42.1889 13.558 42.1888 13.558 42.1887 13.558C42.1886 13.558 42.1884 13.558 42.1883 13.558C42.1882 13.558 42.1881 13.558 42.188 13.558C42.1878 13.558 42.1877 13.558 42.1876 13.558C42.1875 13.558 42.1873 13.558 42.1872 13.558C42.1871 13.558 42.187 13.558 42.1869 13.558C42.1867 13.558 42.1866 13.558 42.1865 13.558C42.1864 13.558 42.1863 13.558 42.1861 13.558C42.186 13.558 42.1859 13.558 42.1858 13.558C42.1856 13.558 42.1855 13.558 42.1854 13.558C42.1853 13.558 42.1852 13.558 42.185 13.558C42.1849 13.558 42.1848 13.558 42.1847 13.558C42.1845 13.558 42.1844 13.558 42.1843 13.558C42.1842 13.558 42.1841 13.558 42.1839 13.558C42.1838 13.558 42.1837 13.558 42.1836 13.558C42.1834 13.558 42.1833 13.558 42.1832 13.558C42.1831 13.558 42.183 13.558 42.1828 13.558C42.1827 13.558 42.1826 13.558 42.1825 13.558C42.1823 13.558 42.1822 13.558 42.1821 13.558C42.182 13.558 42.1819 13.558 42.1817 13.558C42.1816 13.558 42.1815 13.558 42.1814 13.558C42.1812 13.558 42.1811 13.558 42.181 13.558C42.1809 13.558 42.1807 13.558 42.1806 13.558C42.1805 13.558 42.1804 13.558 42.1803 13.558C42.1801 13.558 42.18 13.558 42.1799 13.558C42.1798 13.558 42.1796 13.558 42.1795 13.558C42.1794 13.558 42.1793 13.558 42.1792 13.558C42.179 13.558 42.1789 13.558 42.1788 13.558C42.1787 13.558 42.1785 13.558 42.1784 13.558C42.1783 13.558 42.1782 13.558 42.178 13.558C42.1779 13.558 42.1778 13.558 42.1777 13.558C42.1776 13.558 42.1774 13.558 42.1773 13.558C42.1772 13.558 42.1771 13.558 42.1769 13.558C42.1768 13.558 42.1767 13.558 42.1766 13.558C42.1764 13.558 42.1763 13.558 42.1762 13.558C42.1761 13.558 42.176 13.558 42.1758 13.558C42.1757 13.558 42.1756 13.558 42.1755 13.558C42.1753 13.558 42.1752 13.558 42.1751 13.558C42.175 13.558 42.1748 13.558 42.1747 13.558C42.1746 13.558 42.1745 13.558 42.1743 13.558C42.1742 13.558 42.1741 13.558 42.174 13.558C42.1739 13.558 42.1737 13.558 42.1736 13.558C42.1735 13.558 42.1734 13.558 42.1732 13.558C42.1731 13.558 42.173 13.558 42.1729 13.558C42.1727 13.558 42.1726 13.558 42.1725 13.558C42.1724 13.558 42.1722 13.558 42.1721 13.558C42.172 13.558 42.1719 13.558 42.1717 13.558C42.1716 13.558 42.1715 13.558 42.1714 13.558C42.1713 13.558 42.1711 13.558 42.171 13.558C42.1709 13.558 42.1708 13.558 42.1706 13.558C42.1705 13.558 42.1704 13.558 42.1703 13.558C42.1701 13.558 42.17 13.558 42.1699 13.558C42.1698 13.558 42.1696 13.558 42.1695 13.558C42.1694 13.558 42.1693 13.558 42.1691 13.558C42.169 13.558 42.1689 13.558 42.1688 13.558C42.1686 13.558 42.1685 13.558 42.1684 13.558C42.1683 13.558 42.1681 13.558 42.168 13.558C42.1679 13.558 42.1678 13.558 42.1676 13.558C42.1675 13.558 42.1674 13.558 42.1673 13.558C42.1672 13.558 42.167 13.558 42.1669 13.558C42.1668 13.558 42.1667 13.558 42.1665 13.558C42.1664 13.558 42.1663 13.558 42.1662 13.558C42.166 13.558 42.1659 13.558 42.1658 13.558C42.1657 13.558 42.1655 13.558 42.1654 13.558C42.1653 13.558 42.1652 13.558 42.165 13.558C42.1649 13.558 42.1648 13.558 42.1647 13.558C42.1645 13.558 42.1644 13.558 42.1643 13.558C42.1642 13.558 42.164 13.558 42.1639 13.558C42.1638 13.558 42.1637 13.558 42.1635 13.558C42.1634 13.558 42.1633 13.558 42.1632 13.558C42.163 13.558 42.1629 13.558 42.1628 13.558C42.1627 13.558 42.1625 13.558 42.1624 13.558C42.1623 13.558 42.1622 13.558 42.162 13.558C42.1619 13.558 42.1618 13.558 42.1616 13.558C42.1615 13.558 42.1614 13.558 42.1613 13.558C42.1611 13.558 42.161 13.558 42.1609 13.558C42.1608 13.558 42.1606 13.558 42.1605 13.558C42.1604 13.558 42.1603 13.558 42.1601 13.558C42.16 13.558 42.1599 13.558 42.1598 13.558C42.1596 13.558 42.1595 13.558 42.1594 13.558C42.1593 13.558 42.1591 13.558 42.159 13.558C42.1589 13.558 42.1588 13.558 42.1586 13.558C42.1585 13.558 42.1584 13.558 42.1583 13.558C42.1581 13.558 42.158 13.558 42.1579 13.558C42.1578 13.558 42.1576 13.558 42.1575 13.558C42.1574 13.558 42.1572 13.558 42.1571 13.558C42.157 13.558 42.1569 13.558 42.1567 13.558C42.1566 13.558 42.1565 13.558 42.1564 13.558C42.1562 13.558 42.1561 13.558 42.156 13.558C42.1559 13.558 42.1557 13.558 42.1556 13.558C42.1555 13.558 42.1554 13.558 42.1552 13.558C42.1551 13.558 42.155 13.558 42.1549 13.558C42.1547 13.558 42.1546 13.558 42.1545 13.558C42.1543 13.558 42.1542 13.558 42.1541 13.558C42.154 13.558 42.1538 13.558 42.1537 13.558C42.1536 13.558 42.1535 13.558 42.1533 13.558C42.1532 13.558 42.1531 13.558 42.153 13.558C42.1528 13.558 42.1527 13.558 42.1526 13.558C42.1524 13.558 42.1523 13.558 42.1522 13.558C42.1521 13.558 42.1519 13.558 42.1518 13.558C42.1517 13.558 42.1516 13.558 42.1514 13.558C42.1513 13.558 42.1512 13.558 42.1511 13.558C42.1509 13.558 42.1508 13.558 42.1507 13.558C42.1505 13.558 42.1504 13.558 42.1503 13.558C42.1502 13.558 42.15 13.558 42.1499 13.558C42.1498 13.558 42.1497 13.558 42.1495 13.558C42.1494 13.558 42.1493 13.558 42.1491 13.558C42.149 13.558 42.1489 13.558 42.1488 13.558C42.1486 13.558 42.1485 13.558 42.1484 13.558C42.1483 13.558 42.1481 13.558 42.148 13.558C42.1479 13.558 42.1477 13.558 42.1476 13.558C42.1475 13.558 42.1474 13.558 42.1472 13.558C42.1471 13.558 42.147 13.558 42.1469 13.558C42.1467 13.558 42.1466 13.558 42.1465 13.558C42.1463 13.558 42.1462 13.558 42.1461 13.558C42.146 13.558 42.1458 13.558 42.1457 13.558C42.1456 13.558 42.1455 13.558 42.1453 13.558C42.1452 13.558 42.1451 13.558 42.1449 13.558C42.1448 13.558 42.1447 13.558 42.1446 13.558C42.1444 13.558 42.1443 13.558 42.1442 13.558C42.144 13.558 42.1439 13.558 42.1438 13.558C42.1437 13.558 42.1435 13.558 42.1434 13.558C42.1433 13.558 42.1432 13.558 42.143 13.558C42.1429 13.558 42.1428 13.558 42.1426 13.558C42.1425 13.558 42.1424 13.558 42.1423 13.558C42.1421 13.558 42.142 13.558 42.1419 13.558C42.1417 13.558 42.1416 13.558 42.1415 13.558C42.1414 13.558 42.1412 13.558 42.1411 13.558C42.141 13.558 42.1408 13.558 42.1407 13.558C42.1406 13.558 42.1405 13.558 42.1403 13.558C42.1402 13.558 42.1401 13.558 42.1399 13.558C42.1398 13.558 42.1397 13.558 42.1396 13.558C42.1394 13.558 42.1393 13.558 42.1392 13.558C42.139 13.558 42.1389 13.558 42.1388 13.558C42.1387 13.558 42.1385 13.558 42.1384 13.558C42.1383 13.558 42.1381 13.558 42.138 13.558C42.1379 13.558 42.1378 13.558 42.1376 13.558C42.1375 13.558 42.1374 13.558 42.1372 13.558C42.1371 13.558 42.137 13.558 42.1369 13.558C42.1367 13.558 42.1366 13.558 42.1365 13.558C42.1363 13.558 42.1362 13.558 42.1361 13.558C42.136 13.558 42.1358 13.558 42.1357 13.558C42.1356 13.558 42.1354 13.558 42.1353 13.558C42.1352 13.558 42.1351 13.558 42.1349 13.558C42.1348 13.558 42.1347 13.558 42.1345 13.558C42.1344 13.558 42.1343 13.558 42.1341 13.558C42.134 13.558 42.1339 13.558 42.1338 13.558C42.1336 13.558 42.1335 13.558 42.1334 13.558C42.1332 13.558 42.1331 13.558 42.133 13.558C42.1329 13.558 42.1327 13.558 42.1326 13.558C42.1325 13.558 42.1323 13.558 42.1322 13.558C42.1321 13.558 42.132 13.558 42.1318 13.558C42.1317 13.558 42.1316 13.558 42.1314 13.558C42.1313 13.558 42.1312 13.558 42.131 13.558C42.1309 13.558 42.1308 13.558 42.1307 13.558C42.1305 13.558 42.1304 13.558 42.1303 13.558C42.1301 13.558 42.13 13.558 42.1299 13.558C42.1297 13.558 42.1296 13.558 42.1295 13.558C42.1294 13.558 42.1292 13.558 42.1291 13.558C42.129 13.558 42.1288 13.558 42.1287 13.558C42.1286 13.558 42.1284 13.558 42.1283 13.558C42.1282 13.558 42.1281 13.558 42.1279 13.558C42.1278 13.558 42.1277 13.558 42.1275 13.558C42.1274 13.558 42.1273 13.558 42.1271 13.558C42.127 13.558 42.1269 13.558 42.1268 13.558C42.1266 13.558 42.1265 13.558 42.1264 13.558C42.1262 13.558 42.1261 13.558 42.126 13.558C42.1258 13.558 42.1257 13.558 42.1256 13.558C42.1255 13.558 42.1253 13.558 42.1252 13.558C42.1251 13.558 42.1249 13.558 42.1248 13.558C42.1247 13.558 42.1245 13.558 42.1244 13.558C42.1243 13.558 42.1241 13.558 42.124 13.558C42.1239 13.558 42.1238 13.558 42.1236 13.558C42.1235 13.558 42.1234 13.558 42.1232 13.558C42.1231 13.558 42.123 13.558 42.1228 13.558C42.1227 13.558 42.1226 13.558 42.1224 13.558C42.1223 13.558 42.1222 13.558 42.1221 13.558C42.1219 13.558 42.1218 13.558 42.1217 13.558C42.1215 13.558 42.1214 13.558 42.1213 13.558C42.1211 13.558 42.121 13.558 42.1209 13.558C42.1207 13.558 42.1206 13.558 42.1205 13.558C42.1203 13.558 42.1202 13.558 42.1201 13.558C42.12 13.558 42.1198 13.558 42.1197 13.558C42.1196 13.558 42.1194 13.558 42.1193 13.558C42.1192 13.558 42.119 13.558 42.1189 13.558C42.1188 13.558 42.1186 13.558 42.1185 13.558C42.1184 13.558 42.1182 13.558 42.1181 13.558C42.118 13.558 42.1179 13.558 42.1177 13.558C42.1176 13.558 42.1175 13.558 42.1173 13.558C42.1172 13.558 42.1171 13.558 42.1169 13.558C42.1168 13.558 42.1167 13.558 42.1165 13.558C42.1164 13.558 42.1163 13.558 42.1161 13.558C42.116 13.558 42.1159 13.558 42.1157 13.558C42.1156 13.558 42.1155 13.558 42.1154 13.558C42.1152 13.558 42.1151 13.558 42.115 13.558C42.1148 13.558 42.1147 13.558 42.1146 13.558C42.1144 13.558 42.1143 13.558 42.1142 13.558C42.114 13.558 42.1139 13.558 42.1138 13.558C42.1136 13.558 42.1135 13.558 42.1134 13.558C42.1132 13.558 42.1131 13.558 42.113 13.558C42.1128 13.558 42.1127 13.558 42.1126 13.558C42.1124 13.558 42.1123 13.558 42.1122 13.558C42.1121 13.558 42.1119 13.558 42.1118 13.558C42.1117 13.558 42.1115 13.558 42.1114 13.558C42.1113 13.558 42.1111 13.558 42.111 13.558C42.1109 13.558 42.1107 13.558 42.1106 13.558C42.1105 13.558 42.1103 13.558 42.1102 13.558C42.1101 13.558 42.1099 13.558 42.1098 13.558C42.1097 13.558 42.1095 13.558 42.1094 13.558C42.1093 13.558 42.1091 13.558 42.109 13.558C42.1089 13.558 42.1087 13.558 42.1086 13.558C42.1085 13.558 42.1083 13.558 42.1082 13.558C42.1081 13.558 42.1079 13.558 42.1078 13.558C42.1077 13.558 42.1075 13.558 42.1074 13.558C42.1073 13.558 42.1071 13.558 42.107 13.558C42.1069 13.558 42.1067 13.558 42.1066 13.558C42.1065 13.558 42.1063 13.558 42.1062 13.558C42.1061 13.558 42.106 13.558 42.1058 13.558C42.1057 13.558 42.1056 13.558 42.1054 13.558C42.1053 13.558 42.1052 13.558 42.105 13.558C42.1049 13.558 42.1048 13.558 42.1046 13.558C42.1045 13.558 42.1044 13.558 42.1042 13.558C42.1041 13.558 42.104 13.558 42.1038 13.558C42.1037 13.558 42.1036 13.558 42.1034 13.558C42.1033 13.558 42.1032 13.558 42.103 13.558C42.1029 13.558 42.1028 13.558 42.1026 13.558C42.1025 13.558 42.1024 13.558 42.1022 13.558C42.1021 13.558 42.102 13.558 42.1018 13.558C42.1017 13.558 42.1015 13.558 42.1014 13.558C42.1013 13.558 42.1011 13.558 42.101 13.558C42.1009 13.558 42.1007 13.558 42.1006 13.558C42.1005 13.558 42.1003 13.558 42.1002 13.558C42.1001 13.558 42.0999 13.558 42.0998 13.558C42.0997 13.558 42.0995 13.558 42.0994 13.558C42.0993 13.558 42.0991 13.558 42.099 13.558C42.0989 13.558 42.0987 13.558 42.0986 13.558C42.0985 13.558 42.0983 13.558 42.0982 13.558C42.0981 13.558 42.0979 13.558 42.0978 13.558C42.0977 13.558 42.0975 13.558 42.0974 13.558C42.0973 13.558 42.0971 13.558 42.097 13.558C42.0969 13.558 42.0967 13.558 42.0966 13.558C42.0965 13.558 42.0963 13.558 42.0962 13.558C42.0961 13.558 42.0959 13.558 42.0958 13.558C42.0957 13.558 42.0955 13.558 42.0954 13.558C42.0952 13.558 42.0951 13.558 42.095 13.558C42.0948 13.558 42.0947 13.558 42.0946 13.558C42.0944 13.558 42.0943 13.558 42.0942 13.558C42.094 13.558 42.0939 13.558 42.0938 13.558C42.0936 13.558 42.0935 13.558 42.0934 13.558C42.0932 13.558 42.0931 13.558 42.093 13.558C42.0928 13.558 42.0927 13.558 42.0926 13.558C42.0924 13.558 42.0923 13.558 42.0921 13.558C42.092 13.558 42.0919 13.558 42.0917 13.558C42.0916 13.558 42.0915 13.558 42.0913 13.558C42.0912 13.558 42.0911 13.558 42.0909 13.558C42.0908 13.558 42.0907 13.558 42.0905 13.558C42.0904 13.558 42.0903 13.558 42.0901 13.558C42.09 13.558 42.0899 13.558 42.0897 13.558C42.0896 13.558 42.0894 13.558 42.0893 13.558C42.0892 13.558 42.089 13.558 42.0889 13.558C42.0888 13.558 42.0886 13.558 42.0885 13.558C42.0884 13.558 42.0882 13.558 42.0881 13.558C42.088 13.558 42.0878 13.558 42.0877 13.558C42.0876 13.558 42.0874 13.558 42.0873 13.558C42.0871 13.558 42.087 13.558 42.0869 13.558C42.0867 13.558 42.0866 13.558 42.0865 13.558C42.0863 13.558 42.0862 13.558 42.0861 13.558C42.0859 13.558 42.0858 13.558 42.0857 13.558C42.0855 13.558 42.0854 13.558 42.0852 13.558C42.0851 13.558 42.085 13.558 42.0848 13.558C42.0847 13.558 42.0846 13.558 42.0844 13.558C42.0843 13.558 42.0842 13.558 42.084 13.558C42.0839 13.558 42.0838 13.558 42.0836 13.558C42.0835 13.558 42.0833 13.558 42.0832 13.558C42.0831 13.558 42.0829 13.558 42.0828 13.558C42.0827 13.558 42.0825 13.558 42.0824 13.558C42.0823 13.558 42.0821 13.558 42.082 13.558C42.0818 13.558 42.0817 13.558 42.0816 13.558C42.0814 13.558 42.0813 13.558 42.0812 13.558C42.081 13.558 42.0809 13.558 42.0808 13.558C42.0806 13.558 42.0805 13.558 42.0803 13.558C42.0802 13.558 42.0801 13.558 42.0799 13.558C42.0798 13.558 42.0797 13.558 42.0795 13.558C42.0794 13.558 42.0793 13.558 42.0791 13.558C42.079 13.558 42.0788 13.558 42.0787 13.558C42.0786 13.558 42.0784 13.558 42.0783 13.558V15.558ZM42.5098 15.5281C42.4718 15.5376 42.4514 15.537 42.4563 15.537V13.537C42.3212 13.537 42.1748 13.5504 42.0248 13.5879L42.5098 15.5281ZM42.4563 15.537C42.4897 15.537 42.4709 15.5428 42.4343 15.5212C42.3986 15.5001 42.3988 15.484 42.42 15.5216C42.4795 15.6272 42.5693 15.9142 42.5693 16.511H44.5693C44.5693 15.7918 44.4736 15.0918 44.1621 14.5394C43.8033 13.903 43.1962 13.537 42.4563 13.537V15.537ZM42.5693 16.511C42.5693 17.2795 42.4417 18.0021 42.19 18.6853L44.0666 19.3767C44.4029 18.4639 44.5693 17.5065 44.5693 16.511H42.5693ZM42.1866 18.6947C41.9438 19.3742 41.5995 19.9899 41.1521 20.5462L42.7105 21.7998C43.299 21.0681 43.7527 20.2558 44.07 19.3673L42.1866 18.6947ZM41.1438 20.5567C40.7133 21.1067 40.1918 21.5755 39.5728 21.9639L40.6358 23.6581C41.4448 23.1505 42.1413 22.5273 42.7188 21.7893L41.1438 20.5567ZM39.5774 21.9611C38.9786 22.3324 38.3159 22.5988 37.5825 22.7577L38.0061 24.7123C38.9527 24.5072 39.83 24.1576 40.6312 23.6609L39.5774 21.9611ZM38.0611 16.5256C37.7955 16.8849 37.5484 17.2716 37.3191 17.6844L39.0675 18.6556C39.2581 18.3124 39.4591 17.9991 39.6695 17.7144L38.0611 16.5256ZM37.3191 17.6844C37.0882 18.1 36.8872 18.5251 36.7165 18.9593L38.578 19.6907C38.7154 19.3409 38.8784 18.996 39.0675 18.6556L37.3191 17.6844ZM36.7212 18.9477C36.5489 19.3706 36.413 19.7926 36.3159 20.2131L38.2647 20.6629C38.3356 20.3554 38.4377 20.0354 38.5734 19.7023L36.7212 18.9477ZM36.3179 20.2046C36.2205 20.6106 36.1643 21.0058 36.1643 21.383H38.1643C38.1643 21.2002 38.1921 20.9654 38.2627 20.6714L36.3179 20.2046ZM36.1643 21.383C36.1643 21.8326 36.2397 22.2704 36.3925 22.6907L38.2721 22.0073C38.2009 21.8116 38.1643 21.6054 38.1643 21.383H36.1643ZM36.3925 22.6907C36.4654 22.8913 36.5624 23.1055 36.6993 23.2956C36.8323 23.4804 37.0624 23.7237 37.4229 23.8318L37.9976 21.9162C38.2182 21.9823 38.3153 22.1171 38.3223 22.1269C38.3332 22.142 38.3112 22.1147 38.2721 22.0073L36.3925 22.6907ZM37.9272 23.8502C38.6908 23.6805 39.3918 23.3645 40.0218 22.9048L38.8428 21.2892C38.4368 21.5855 37.9898 21.7875 37.4934 21.8978L37.9272 23.8502ZM40.0255 22.9021C40.6564 22.4372 41.1921 21.8666 41.6325 21.198L39.9621 20.098C39.6465 20.5774 39.2722 20.9728 38.8391 21.2919L40.0255 22.9021ZM41.6231 21.212C42.0802 20.5426 42.4243 19.7932 42.6611 18.9722L40.7395 18.4178C40.5563 19.0528 40.2984 19.6054 39.9715 20.084L41.6231 21.212ZM42.6561 18.9891C42.9118 18.1581 43.0363 17.2813 43.0363 16.364H41.0363C41.0363 17.0987 40.9368 17.7759 40.7445 18.4009L42.6561 18.9891ZM43.0363 16.364C43.0363 15.973 43.0147 15.6108 42.9539 15.3069L40.9927 15.6991C41.0159 15.8152 41.0363 16.027 41.0363 16.364H43.0363ZM42.9539 15.3069C42.8918 14.9964 42.7817 14.6946 42.607 14.4201L40.9196 15.4939C40.9409 15.5274 40.9708 15.5896 40.9927 15.6991L42.9539 15.3069ZM41.4799 13.998C40.7354 14.218 40.0615 14.5758 39.4663 15.069L40.7423 16.609C41.1271 16.2902 41.5592 16.06 42.0466 15.916L41.4799 13.998ZM39.4554 15.0782C38.9333 15.5235 38.4725 15.9984 38.0773 16.5044L39.6533 17.7356C39.9581 17.3456 40.3233 16.9665 40.7532 16.5998L39.4554 15.0782ZM44.0818 22.58L43.0964 22.4101L43.0503 22.6773L43.1455 22.9311L44.0818 22.58ZM44.4388 20.984L43.4736 20.7226L43.4717 20.7296L43.4699 20.7366L44.4388 20.984ZM45.0688 18.863L46.0211 19.1684L46.0227 19.1633L45.0688 18.863ZM45.8248 16.595L44.8815 16.2631L45.8248 16.595ZM46.6018 14.558L45.6796 14.1713L45.6794 14.1719L46.6018 14.558ZM47.0848 13.55L47.9468 14.057L47.953 14.0464L47.959 14.0356L47.0848 13.55ZM47.5468 12.92L47.6882 11.93L47.1933 11.8593L46.8397 12.2129L47.5468 12.92ZM48.1558 13.067L48.4721 12.1183V12.1183L48.1558 13.067ZM49.2898 13.634L48.7017 14.4427L48.7268 14.461L48.753 14.4777L49.2898 13.634ZM49.6468 13.928L50.4111 14.5729L50.9595 13.9229L50.4061 13.2772L49.6468 13.928ZM48.6388 15.461L47.7488 15.0051L47.7443 15.0138L47.7401 15.0226L48.6388 15.461ZM47.7778 17.666L46.8277 17.3542L45.6722 20.8756L48.4422 18.4134L47.7778 17.666ZM49.7728 15.734L49.0494 15.0435L49.0412 15.0523L49.7728 15.734ZM51.4108 13.676L50.7706 12.9078L50.6592 13.0006L50.5788 13.1213L51.4108 13.676ZM52.4188 13.676L52.0599 14.6093L52.0919 14.6217L52.1247 14.6318L52.4188 13.676ZM52.7968 13.928L53.7332 14.2791L53.9065 13.8168L53.6448 13.398L52.7968 13.928ZM52.6918 17.309L53.6782 17.4734L53.7381 17.114L53.5528 16.8003L52.6918 17.309ZM52.3978 17.792L51.6035 17.1845L51.5919 17.1997L51.5809 17.2153L52.3978 17.792ZM51.8308 18.464L51.3705 19.3518L52.0203 19.6887L52.5379 19.1711L51.8308 18.464ZM50.8228 17.666L50.0571 18.3092L50.0636 18.3169L50.0703 18.3245L50.8228 17.666ZM50.1718 16.532L51.1172 16.206L50.6842 14.9504L49.5972 15.7136L50.1718 16.532ZM48.4918 17.897L49.1765 18.6258L49.1823 18.6204L49.188 18.6149L48.4918 17.897ZM47.2948 19.367L46.4431 18.8429L46.4393 18.8492L47.2948 19.367ZM46.4548 21.215L45.5081 20.8931L45.5052 20.9016L45.5024 20.9102L46.4548 21.215ZM45.8038 23.714L45.6934 24.7079L46.5895 24.8074L46.781 23.9264L45.8038 23.714ZM45.3418 23.567L45.7609 22.659L45.7438 22.6512L45.7264 22.6439L45.3418 23.567ZM44.8168 23.294L44.2621 24.1261L44.2773 24.1361L44.2927 24.1457L44.8168 23.294ZM45.0673 22.7499C45.1309 22.3811 45.2427 21.8779 45.4077 21.2314L43.4699 20.7366C43.299 21.4061 43.1728 21.9669 43.0964 22.4101L45.0673 22.7499ZM45.4041 21.2454C45.5816 20.5898 45.7872 19.8975 46.021 19.1684L44.1166 18.5576C43.8745 19.3125 43.66 20.0342 43.4736 20.7226L45.4041 21.2454ZM46.0227 19.1633C46.2573 18.418 46.5058 17.6725 46.7681 16.9269L44.8815 16.2631C44.6119 17.0295 44.3564 17.796 44.115 18.5627L46.0227 19.1633ZM46.7681 16.9269C47.0291 16.1852 47.2812 15.5248 47.5243 14.9441L45.6794 14.1719C45.4185 14.7952 45.1526 15.4928 44.8815 16.2631L46.7681 16.9269ZM47.524 14.9447C47.6989 14.5277 47.8399 14.2387 47.9468 14.057L46.2229 13.043C46.0498 13.3373 45.8687 13.7203 45.6796 14.1713L47.524 14.9447ZM47.959 14.0356C48.0631 13.8482 48.1639 13.7172 48.2539 13.6271L46.8397 12.2129C46.5938 12.4588 46.3865 12.7478 46.2107 13.0644L47.959 14.0356ZM47.4054 13.9099C47.5355 13.9285 47.68 13.9625 47.8396 14.0157L48.4721 12.1183C48.2117 12.0315 47.9501 11.9675 47.6882 11.93L47.4054 13.9099ZM47.8396 14.0157C48.0052 14.0709 48.1644 14.1368 48.3176 14.2134L49.212 12.4246C48.9733 12.3052 48.7265 12.2031 48.4721 12.1183L47.8396 14.0157ZM48.3176 14.2134C48.4715 14.2904 48.5983 14.3675 48.7017 14.4427L49.878 12.8253C49.6734 12.6765 49.4501 12.5436 49.212 12.4246L48.3176 14.2134ZM48.753 14.4777C48.8016 14.5086 48.8359 14.534 48.8589 14.5529C48.8821 14.572 48.8896 14.5811 48.8876 14.5788L50.4061 13.2772C50.2374 13.0804 50.0324 12.9213 49.8267 12.7903L48.753 14.4777ZM48.8825 13.2831C48.451 13.7946 48.074 14.3702 47.7488 15.0051L49.5289 15.9169C49.7917 15.4038 50.0867 14.9574 50.4111 14.5729L48.8825 13.2831ZM47.7401 15.0226C47.4331 15.6519 47.1299 16.4332 46.8277 17.3542L48.728 17.9778C49.0138 17.1068 49.2846 16.4181 49.5376 15.8994L47.7401 15.0226ZM48.4422 18.4134C49.2171 17.7246 49.9053 17.0587 50.5044 16.4157L49.0412 15.0523C48.4923 15.6413 47.8505 16.2634 47.1135 16.9186L48.4422 18.4134ZM50.4962 16.4245C51.1269 15.7638 51.7088 15.0318 52.2429 14.2307L50.5788 13.1213C50.1049 13.8322 49.5948 14.4722 49.0495 15.0435L50.4962 16.4245ZM52.051 14.4442C51.938 14.5384 51.8382 14.5647 51.8157 14.5701C51.7904 14.5761 51.797 14.571 51.8518 14.571V12.571C51.5939 12.571 51.1385 12.6013 50.7706 12.9078L52.051 14.4442ZM51.8518 14.571C51.9257 14.571 51.993 14.5836 52.0599 14.6093L52.7778 12.7427C52.4806 12.6284 52.1699 12.571 51.8518 12.571V14.571ZM52.1247 14.6318C52.1767 14.6478 52.0524 14.6238 51.9488 14.458L53.6448 13.398C53.4012 13.0082 53.0249 12.8162 52.7129 12.7202L52.1247 14.6318ZM51.8605 13.5769C51.5702 14.351 51.4188 15.1347 51.4188 15.923H53.4188C53.4188 15.3953 53.5194 14.849 53.7332 14.2791L51.8605 13.5769ZM51.4188 15.923C51.4188 16.6048 51.5137 17.281 51.8309 17.8177L53.5528 16.8003C53.5059 16.721 53.4188 16.4732 53.4188 15.923H51.4188ZM51.7054 17.1446C51.7146 17.0896 51.7272 17.0478 51.7356 17.0231C51.7443 16.9973 51.7521 16.9794 51.7561 16.9707C51.7635 16.9546 51.7651 16.954 51.7536 16.9728C51.7431 16.9901 51.7259 17.0166 51.7 17.0535C51.6744 17.09 51.6425 17.1335 51.6035 17.1845L53.1922 18.3995C53.2937 18.2666 53.3872 18.1356 53.462 18.0127C53.5163 17.9235 53.6371 17.7203 53.6782 17.4734L51.7054 17.1446ZM51.5809 17.2153C51.4463 17.4059 51.2942 17.5864 51.1237 17.7569L52.5379 19.1711C52.7874 18.9216 53.0133 18.6541 53.2148 18.3687L51.5809 17.2153ZM52.2911 17.5762C52.0294 17.4405 51.7912 17.2541 51.5754 17.0075L50.0703 18.3245C50.4424 18.7499 50.8763 19.0955 51.3705 19.3518L52.2911 17.5762ZM51.5885 17.0228C51.3682 16.7605 51.2147 16.4889 51.1172 16.206L49.2265 16.858C49.4089 17.3871 49.6894 17.8715 50.0571 18.3092L51.5885 17.0228ZM49.5972 15.7136C48.9062 16.1987 48.3034 16.6867 47.7957 17.1791L49.188 18.6149C49.6042 18.2113 50.1214 17.7893 50.7465 17.3504L49.5972 15.7136ZM47.8072 17.1682C47.2799 17.6634 46.825 18.2224 46.4432 18.8429L48.1465 19.8911C48.4367 19.4196 48.7797 18.9986 49.1765 18.6258L47.8072 17.1682ZM46.4393 18.8492C46.0737 19.4533 45.7651 20.1371 45.5081 20.8931L47.4016 21.5369C47.6206 20.8929 47.872 20.3447 48.1503 19.8848L46.4393 18.8492ZM45.5024 20.9102C45.266 21.6489 45.0413 22.5143 44.8267 23.5016L46.781 23.9264C46.9864 22.9817 47.1956 22.1811 47.4073 21.5198L45.5024 20.9102ZM45.9143 22.7201C45.9317 22.7221 45.9275 22.7235 45.897 22.7138C45.8676 22.7045 45.8228 22.6876 45.7609 22.659L44.9228 24.475C45.1525 24.581 45.4171 24.6772 45.6934 24.7079L45.9143 22.7201ZM45.7264 22.6439C45.6142 22.5972 45.4858 22.5315 45.3409 22.4423L44.2927 24.1457C44.5118 24.2805 44.7335 24.3968 44.9572 24.4901L45.7264 22.6439ZM45.3715 22.462C45.2409 22.3748 45.1254 22.2852 45.0238 22.1937L43.6859 23.6803C43.8642 23.8408 44.0568 23.9892 44.2621 24.1261L45.3715 22.462ZM45.0238 22.1937C45.0068 22.1784 44.9947 22.1664 44.9866 22.1578C44.9785 22.1492 44.9754 22.1451 44.9759 22.1458C44.9764 22.1464 44.9816 22.1532 44.9891 22.1663C44.9967 22.1795 45.0075 22.2004 45.0182 22.2289L43.1455 22.9311C43.2672 23.2556 43.4883 23.5025 43.6859 23.6803L45.0238 22.1937Z" fill="url(#paint2_linear_3_3)" mask="url(#path-2-inside-1_3_3)"/>
</g>
<path d="M54.415 18.8V21.026C54.415 21.096 54.45 21.131 54.52 21.131H55.36C55.43 21.131 55.465 21.096 55.465 21.026V17.246L53.806 16.511C53.68 16.469 53.505 16.399 53.281 16.301C53.057 16.189 52.854 16.028 52.672 15.818C52.504 15.608 52.42 15.321 52.42 14.957V10.169C52.42 9.581 52.602 9.112 52.966 8.762C53.33 8.398 53.806 8.216 54.394 8.216H55.486C56.074 8.216 56.55 8.398 56.914 8.762C57.278 9.112 57.46 9.581 57.46 10.169V13.277L55.465 13.109V10.274C55.465 10.204 55.43 10.169 55.36 10.169H54.52C54.45 10.169 54.415 10.204 54.415 10.274V14.663L56.074 15.398C56.2 15.454 56.375 15.531 56.599 15.629C56.823 15.727 57.019 15.881 57.187 16.091C57.369 16.301 57.46 16.588 57.46 16.952V21.131C57.46 21.719 57.278 22.195 56.914 22.559C56.55 22.909 56.074 23.084 55.486 23.084H54.394C53.806 23.084 53.33 22.909 52.966 22.559C52.602 22.195 52.42 21.719 52.42 21.131V18.8H54.415ZM61.8127 21.047V12.5H63.8077V21.047H64.1227L64.3327 23H61.8127V22.181L61.2877 23H60.7207C60.0767 23 59.5587 22.818 59.1667 22.454C58.7887 22.076 58.5997 21.607 58.5997 21.047V14.453H58.0957L58.3057 12.5H60.5947V20.942C60.5947 21.012 60.6297 21.047 60.6997 21.047H61.8127ZM64.7452 21.131V14.369C64.7452 13.781 64.9272 13.312 65.2912 12.962C65.6552 12.598 66.1312 12.416 66.7192 12.416H68.2312C68.8192 12.416 69.2952 12.598 69.6592 12.962C70.0232 13.312 70.2052 13.781 70.2052 14.369V17.141L68.2102 16.931V14.474C68.2102 14.404 68.1752 14.369 68.1052 14.369H66.8452C66.7752 14.369 66.7402 14.404 66.7402 14.474V21.026C66.7402 21.096 66.7752 21.131 66.8452 21.131H68.1052C68.1752 21.131 68.2102 21.103 68.2102 21.047V18.611H70.2052V21.131C70.2052 21.719 70.0232 22.195 69.6592 22.559C69.2952 22.909 68.8192 23.084 68.2312 23.084H66.7192C66.1312 23.084 65.6552 22.909 65.2912 22.559C64.9272 22.195 64.7452 21.719 64.7452 21.131ZM71.0411 21.131V14.369C71.0411 13.781 71.2231 13.312 71.5871 12.962C71.9511 12.598 72.4271 12.416 73.0151 12.416H74.5271C75.1151 12.416 75.5911 12.598 75.9551 12.962C76.3191 13.312 76.5011 13.781 76.5011 14.369V17.141L74.5061 16.931V14.474C74.5061 14.404 74.4711 14.369 74.4011 14.369H73.1411C73.0711 14.369 73.0361 14.404 73.0361 14.474V21.026C73.0361 21.096 73.0711 21.131 73.1411 21.131H74.4011C74.4711 21.131 74.5061 21.103 74.5061 21.047V18.611H76.5011V21.131C76.5011 21.719 76.3191 22.195 75.9551 22.559C75.5911 22.909 75.1151 23.084 74.5271 23.084H73.0151C72.4271 23.084 71.9511 22.909 71.5871 22.559C71.2231 22.195 71.0411 21.719 71.0411 21.131ZM77.337 21.131V14.369C77.337 13.781 77.519 13.312 77.883 12.962C78.247 12.598 78.723 12.416 79.311 12.416H80.613C81.201 12.416 81.677 12.598 82.041 12.962C82.405 13.312 82.587 13.781 82.587 14.369V16.952H80.592V14.474C80.592 14.404 80.557 14.369 80.487 14.369H79.437C79.367 14.369 79.332 14.404 79.332 14.474V16.952H82.587V18.905H79.332V21.026C79.332 21.096 79.367 21.131 79.437 21.131H80.487C80.557 21.131 80.592 21.103 80.592 21.047V19.892H82.587V21.131C82.587 21.719 82.405 22.195 82.041 22.559C81.677 22.909 81.201 23.084 80.613 23.084H79.311C78.723 23.084 78.247 22.909 77.883 22.559C77.519 22.195 77.337 21.719 77.337 21.131ZM83.4278 19.703L85.4228 19.913V20.942C85.4228 21.012 85.4578 21.047 85.5278 21.047H86.3678C86.4378 21.047 86.4728 21.012 86.4728 20.942V18.989L84.6038 18.191C84.3798 18.093 84.1278 17.939 83.8478 17.729C83.5678 17.519 83.4278 17.176 83.4278 16.7V14.369C83.4278 13.781 83.6098 13.312 83.9738 12.962C84.3378 12.598 84.8138 12.416 85.4018 12.416H86.4938C87.0818 12.416 87.5578 12.598 87.9218 12.962C88.2858 13.312 88.4678 13.781 88.4678 14.369V15.713L86.4728 15.503V14.474C86.4728 14.404 86.4378 14.369 86.3678 14.369H85.5278C85.4578 14.369 85.4228 14.404 85.4228 14.474V16.427L87.2918 17.225C87.5158 17.323 87.7678 17.477 88.0478 17.687C88.3278 17.897 88.4678 18.24 88.4678 18.716V21.047C88.4678 21.635 88.2858 22.111 87.9218 22.475C87.5578 22.825 87.0818 23 86.4938 23H85.4018C84.8138 23 84.3378 22.825 83.9738 22.475C83.6098 22.111 83.4278 21.635 83.4278 21.047V19.703ZM89.3136 19.703L91.3086 19.913V20.942C91.3086 21.012 91.3436 21.047 91.4136 21.047H92.2536C92.3236 21.047 92.3586 21.012 92.3586 20.942V18.989L90.4896 18.191C90.2656 18.093 90.0136 17.939 89.7336 17.729C89.4536 17.519 89.3136 17.176 89.3136 16.7V14.369C89.3136 13.781 89.4956 13.312 89.8596 12.962C90.2236 12.598 90.6996 12.416 91.2876 12.416H92.3796C92.9676 12.416 93.4436 12.598 93.8076 12.962C94.1716 13.312 94.3536 13.781 94.3536 14.369V15.713L92.3586 15.503V14.474C92.3586 14.404 92.3236 14.369 92.2536 14.369H91.4136C91.3436 14.369 91.3086 14.404 91.3086 14.474V16.427L93.1776 17.225C93.4016 17.323 93.6536 17.477 93.9336 17.687C94.2136 17.897 94.3536 18.24 94.3536 18.716V21.047C94.3536 21.635 94.1716 22.111 93.8076 22.475C93.4436 22.825 92.9676 23 92.3796 23H91.2876C90.6996 23 90.2236 22.825 89.8596 22.475C89.4956 22.111 89.3136 21.635 89.3136 21.047V19.703Z" fill="url(#paint3_linear_3_3)"/>
</g>
<defs>
<filter id="filter0_d_3_3" x="-3.58" y="8.216" width="29.8672" height="25.577" filterUnits="userSpaceOnUse" color-interpolation-filters="sRGB">
<feFlood flood-opacity="0" result="BackgroundImageFix"/>
<feColorMatrix in="SourceAlpha" type="matrix" values="0 0 0 0 0 0 0 0 0 0 0 0 0 0 0 0 0 0 127 0" result="hardAlpha"/>
<feOffset dy="4"/>
<feGaussianBlur stdDeviation="2"/>
<feComposite in2="hardAlpha" operator="out"/>
<feColorMatrix type="matrix" values="0 0 0 0 0 0 0 0 0 0 0 0 0 0 0 0 0 0 0.25 0"/>
<feBlend mode="normal" in2="BackgroundImageFix" result="effect1_dropShadow_3_3"/>
<feBlend mode="normal" in="SourceGraphic" in2="effect1_dropShadow_3_3" result="shape"/>
</filter>
<filter id="filter1_d_3_3" x="20.373" y="7.502" width="36.4238" height="25.199" filterUnits="userSpaceOnUse" color-interpolation-filters="sRGB">
<feFlood flood-opacity="0" result="BackgroundImageFix"/>
<feColorMatrix in="SourceAlpha" type="matrix" values="0 0 0 0 0 0 0 0 0 0 0 0 0 0 0 0 0 0 127 0" result="hardAlpha"/>
<feOffset dy="4"/>
<feGaussianBlur stdDeviation="2"/>
<feComposite in2="hardAlpha" operator="out"/>
<feColorMatrix type="matrix" values="0 0 0 0 0 0 0 0 0 0 0 0 0 0 0 0 0 0 0.25 0"/>
<feBlend mode="normal" in2="BackgroundImageFix" result="effect1_dropShadow_3_3"/>
<feBlend mode="normal" in="SourceGraphic" in2="effect1_dropShadow_3_3" result="shape"/>
</filter>
<radialGradient id="paint0_radial_3_3" cx="0" cy="0" r="1" gradientUnits="userSpaceOnUse" gradientTransform="translate(9 16) scale(15 17.1429)">
<stop offset="0.19" stop-color="#4489F6"/>
<stop offset="0.835" stop-color="#997BF8"/>
</radialGradient>
<linearGradient id="paint1_linear_3_3" x1="35" y1="-2.5" x2="35.5" y2="28.5" gradientUnits="userSpaceOnUse">
<stop offset="0.336" stop-color="#EB249B"/>
<stop offset="0.54" stop-color="#B9C8D3"/>
<stop offset="0.95" stop-color="#9222B9"/>
</linearGradient>
<linearGradient id="paint2_linear_3_3" x1="51" y1="-11" x2="43" y2="28" gradientUnits="userSpaceOnUse">
<stop offset="0.72" stop-color="#F644B9"/>
<stop offset="0.801" stop-color="#D2D2DF"/>
<stop offset="0.891" stop-color="#CB4FF6"/>
</linearGradient>
<linearGradient id="paint3_linear_3_3" x1="56.5" y1="18" x2="94" y2="18.5" gradientUnits="userSpaceOnUse">
<stop offset="0.271" stop-color="#4489F6"/>
<stop offset="1" stop-color="#997BF8"/>
</linearGradient>
<clipPath id="clip0_3_3">
<rect width="97" height="30" fill="white"/>
</clipPath>
</defs>
</svg>
