<svg width="25" height="25" viewBox="0 0 25 25" fill="none" xmlns="http://www.w3.org/2000/svg">
  <path fill-rule="evenodd" clip-rule="evenodd" d="M7.84146 6.19513C7.84146 3.70985 9.85618 1.69513 12.3415 1.69513C14.8267 1.69513 16.8415 3.70985 16.8415 6.19513C16.8415 8.68041 14.8267 10.6951 12.3415 10.6951C9.85618 10.6951 7.84146 8.68041 7.84146 6.19513Z" fill="currentColor"/>
  <path fill-rule="evenodd" clip-rule="evenodd" d="M4.09271 20.3005C4.17005 15.8107 7.83345 12.1951 12.3415 12.1951C16.8496 12.1951 20.513 15.8109 20.5902 20.3008C20.5953 20.5985 20.4238 20.8711 20.1531 20.9953C17.7742 22.0869 15.128 22.6951 12.3418 22.6951C9.55532 22.6951 6.9089 22.0868 4.52978 20.995C4.25911 20.8708 4.08758 20.5982 4.09271 20.3005Z" fill="currentColor"/>
</svg>
